<svg width="76" height="32" viewBox="0 0 76 32" fill="none" xmlns="http://www.w3.org/2000/svg">
<g clip-path="url(#clip0_217_2370)">
<path fill-rule="evenodd" clip-rule="evenodd" d="M55.2414 14.0526C54.7055 13.3023 53.7257 12.7665 52.6998 12.7665C50.7554 12.7665 49.6683 14.1444 49.6683 16.0583C49.6683 18.0334 50.7554 19.442 52.6998 19.442C54.0625 19.442 54.7974 18.8142 55.4405 18.1712C55.8079 17.7578 56.3285 17.4975 56.9103 17.4975C57.9668 17.4975 58.8395 18.3549 58.8395 19.4267C58.8395 19.9166 58.6557 20.3759 58.3495 20.7128C57.0175 22.2132 55.4098 23.1778 52.6998 23.1778C48.4587 23.1778 45.2588 20.2381 45.2588 16.0583C45.2588 11.9397 48.4434 9 52.6998 9C55.3792 9 56.9869 9.96458 58.3495 11.6335C58.6711 11.9856 58.8701 12.4602 58.8701 12.9655C58.8701 14.0526 57.9821 14.9406 56.895 14.9406C56.2673 14.9406 55.7161 14.6497 55.3486 14.2057C55.3409 14.1904 55.3295 14.1751 55.318 14.1597C55.3065 14.1444 55.295 14.1291 55.2874 14.1138C55.2797 14.1062 55.272 14.0947 55.2644 14.0832C55.2567 14.0717 55.2491 14.0602 55.2414 14.0526ZM67.2541 14.2792C67.4332 14.3181 67.6241 14.3595 67.8269 14.4047C69.802 14.8487 72.2977 15.7674 72.2824 18.6611C72.2824 21.1568 70.9809 23.1931 66.6939 23.1931C64.0911 23.1931 62.3763 22.397 61.1973 21.3252C61.182 21.3099 61.1667 21.2984 61.1514 21.2869C61.1361 21.2754 61.1208 21.264 61.1055 21.2487C61.0902 21.2333 61.0748 21.2142 61.0595 21.1951C61.0442 21.1759 61.0289 21.1568 61.0136 21.1415C60.983 21.0956 60.9524 21.0649 60.9218 21.0343L60.9217 21.0343C60.9064 21.0113 60.8911 20.9845 60.8758 20.9577C60.8605 20.931 60.8452 20.9042 60.8299 20.8812C60.8299 20.8659 60.8146 20.8353 60.7993 20.8199C60.4624 20.1922 60.539 19.3807 61.0748 18.8295C61.7332 18.1559 62.7897 18.1252 63.4786 18.753L63.4327 18.7224C64.2901 19.4114 65.3159 19.8094 66.4183 19.8094C67.8269 19.8094 68.2709 19.5645 68.2709 18.9827C68.2709 18.4075 67.7458 18.2825 66.4609 17.9765C66.1038 17.8914 65.6882 17.7924 65.2088 17.6659C63.3562 17.1913 61.2739 16.1655 61.2739 13.3176C61.2739 10.2402 63.6318 9 66.5408 9C68.7609 9 70.3532 9.71961 71.4709 10.8832C71.823 11.1894 72.0374 11.6488 72.0374 12.1387C72.0374 13.0727 71.2872 13.8229 70.3532 13.8229C69.9092 13.8229 69.5111 13.6545 69.2049 13.3636C68.5618 12.8124 67.6126 12.3378 66.5867 12.3378C65.5915 12.3378 65.1169 12.598 65.1169 13.1339C65.1169 13.8157 65.7969 13.9631 67.2541 14.2792ZM9.98265 14.0526C9.44677 13.3023 8.46688 12.7665 7.44106 12.7665C5.49658 12.7665 4.40951 14.1444 4.40951 16.0583C4.40951 18.0334 5.49658 19.442 7.44106 19.442C8.80372 19.442 9.53864 18.8142 10.1817 18.1712C10.5492 17.7578 11.0697 17.4975 11.6515 17.4975C12.7233 17.4975 13.5807 18.3549 13.5807 19.4267C13.5807 19.9166 13.397 20.3759 13.0907 20.7128C11.7587 22.2132 10.1511 23.1778 7.44106 23.1778C3.19996 23.1778 0 20.2381 0 16.0583C0 11.9397 3.19996 9 7.44106 9C10.1204 9 11.7434 9.96458 13.0907 11.6335C13.4123 11.9856 13.6113 12.4602 13.6113 12.9655C13.6113 14.0526 12.7233 14.9406 11.6362 14.9406C11.0085 14.9406 10.4573 14.6497 10.0898 14.2057C10.0822 14.1904 10.0707 14.1751 10.0592 14.1597C10.0477 14.1444 10.0362 14.1291 10.0286 14.1138C10.0133 14.0832 9.99796 14.0679 9.98265 14.0526ZM32.3824 16.1348C32.3824 18.1406 33.5766 19.5492 35.4905 19.5492C37.4043 19.5492 38.5526 18.1406 38.5526 16.1348C38.5526 14.0985 37.4043 12.7205 35.4905 12.7205C33.5613 12.7205 32.3824 14.0832 32.3824 16.1348ZM27.9729 16.1195C27.9729 11.9703 31.2647 9 35.4905 9C39.7009 9 42.9622 11.9703 42.9622 16.1195C42.9622 20.2381 39.7009 23.1778 35.4905 23.1778C31.2647 23.1778 27.9729 20.2381 27.9729 16.1195ZM23.7165 9.53588C24.7117 9.44401 25.1863 9.52057 25.8447 9.87272C26.4265 10.1789 26.8858 10.7454 27.0236 11.4497C27.2379 12.644 26.4571 13.8076 25.2475 14.0219C24.8346 14.0925 24.3553 13.9907 23.9885 13.9128C23.7978 13.8723 23.6375 13.8382 23.5327 13.8382C22.3691 13.8535 20.3021 14.7569 20.3021 18.3396V20.9577C20.2868 22.1673 19.3069 23.1319 18.0974 23.1319C16.9031 23.1319 15.9386 22.1979 15.8926 21.0037V11.3579C15.9232 10.1636 16.8878 9.19904 18.0974 9.19904C19.261 9.19904 20.2103 10.0871 20.3021 11.2354V11.2507C20.5624 10.9292 21.9404 9.68899 23.7165 9.53588ZM73.245 11.1434V9.71946H73.7503V9.38262H72.311V9.71946H72.8163V11.1434H73.245ZM75.6029 9.88788V11.1434H76.0009V9.38262H75.4191L74.9751 10.5462L74.5311 9.38262H73.9493V11.1434H74.3627V9.88788H74.378L74.8373 11.1281H75.1282L75.5876 9.88788H75.6029Z" fill="#333333"/>
</g>
<defs>
<clipPath id="clip0_217_2370">
<rect width="76" height="32" fill="white"/>
</clipPath>
</defs>
</svg>
