<svg width="113" height="32" viewBox="0 0 113 32" fill="none" xmlns="http://www.w3.org/2000/svg">
<g clip-path="url(#clip0_217_2292)">
<path fill-rule="evenodd" clip-rule="evenodd" d="M10.4959 13.955C10.595 14.1967 10.8326 14.7809 10.8976 14.9413C10.9503 15.0838 10.9345 15.244 10.855 15.3724C10.6925 15.648 8.00535 20.2733 8.00535 20.2733C8.00535 20.2733 13.3084 17.0565 14.1489 16.544C14.4724 16.3495 14.703 16.0229 14.7847 15.6434C14.8665 15.2639 14.792 14.8661 14.5793 14.5464C14.289 14.0984 9.68869 6.97673 9.48437 6.65924C9.40594 6.5237 9.40453 6.35447 9.48068 6.21752C9.55683 6.08058 9.69849 5.99759 9.85044 6.0009H10.9115C11.2908 5.98784 11.6621 6.11678 11.9579 6.36432C14.7983 8.71645 20.9566 13.8188 22.6902 15.2596C23.2252 15.7037 23.3412 16.502 22.9565 17.0911C22.4064 17.9185 21.597 18.5207 20.6671 18.7946C19.2864 19.3216 5.99154 24.3772 3.79508 25.2289C3.14741 25.4793 2.4613 25.6047 1.77044 25.5988H0.357211C0.208714 25.6013 0.0728236 25.5122 0.0107993 25.3717C-0.051225 25.2312 -0.0276679 25.0658 0.070851 24.9501C0.645893 24.299 9.59814 14.2813 9.96963 13.8663C10.0418 13.783 10.1496 13.7435 10.256 13.7614C10.3623 13.7794 10.4527 13.8522 10.4959 13.955ZM63.6227 16.2007C63.3826 15.9644 63.0585 15.8434 62.7288 15.8671H55.2533L56.0675 14.2434H65.1157C65.781 14.2598 66.4115 13.934 66.8013 13.3724L67.1535 12.6713C67.298 12.4384 67.2684 12.1323 67.0823 11.934C66.8363 11.6996 66.5096 11.5789 66.1767 11.5996H53.871C53.2086 11.5807 52.58 11.9037 52.1915 12.4626L47.5417 21.714C47.3938 21.9497 47.421 22.2603 47.6074 22.4642C47.8507 22.6974 48.1742 22.8183 48.5044 22.7994H60.7367C61.4033 22.8182 62.0352 22.4905 62.4223 21.9252L62.7931 21.208C62.9232 20.9748 62.8918 20.6805 62.7157 20.4828C62.4749 20.2544 62.1552 20.138 61.8303 20.1604H53.0924L53.9298 18.4981H61.6693C62.3325 18.5124 62.9608 18.1891 63.3526 17.6318L63.7117 16.9389C63.8464 16.6999 63.8102 16.3965 63.6235 16.1991L63.6227 16.2007ZM112.943 11.9501C113.06 12.1999 112.866 12.5045 112.416 12.7841L105.169 17.2007L108.068 21.7132C108.22 21.9266 108.201 22.223 108.023 22.4135C107.758 22.6833 107.396 22.8244 107.026 22.8019L104.816 22.9268C104.11 23.0021 103.418 22.6804 103.001 22.0823L101.387 19.5287L97.2793 22.0347C96.5511 22.5159 95.7106 22.7811 94.8484 22.8019H92.3029C92.081 22.8802 91.8356 22.8197 91.6709 22.6462C91.5063 22.4727 91.4511 22.2166 91.5289 21.9865C91.6068 21.7564 91.8039 21.5927 92.0366 21.565L99.691 16.9002L96.9705 12.6899C96.8219 12.48 96.8375 12.1898 97.0077 11.9985C97.2724 11.7207 97.6386 11.5741 98.0138 11.5956H100.305C101.013 11.5294 101.7 11.865 102.104 12.4739L103.465 14.5932L107.412 12.1862C108.195 11.7741 109.065 11.5711 109.942 11.5956H112.182C112.482 11.5324 112.788 11.6736 112.944 11.9477L112.943 11.9501ZM94.7865 11.9356C94.9713 12.133 95.0032 12.4361 94.8639 12.6705L90.1877 21.9211C89.7909 22.4913 89.1486 22.8199 88.4726 22.7986H86.4867C86.1524 22.8191 85.8246 22.6969 85.5788 22.4602C85.3955 22.2708 85.3633 21.9742 85.5014 21.7471L90.1606 12.4739C90.5509 11.9116 91.1807 11.5835 91.847 11.5956H93.8686C94.2068 11.5737 94.5389 11.6965 94.788 11.9356H94.7865ZM88.0415 11.9243C88.2333 12.1294 88.2653 12.4444 88.1189 12.6866L83.4807 21.909C83.0961 22.4828 82.4597 22.8161 81.788 22.7954H79.8663C79.5352 22.8195 79.209 22.7013 78.9639 22.4683C78.7795 22.2607 78.7507 21.9505 78.8935 21.71L81.7617 15.9501L75.68 22.0218C75.1374 22.4927 74.461 22.7645 73.7552 22.7954H72.989C72.3823 22.8892 71.8088 22.4803 71.6733 21.8575L71.6114 15.9501L68.6333 21.8744C68.2503 22.4522 67.6106 22.7864 66.9368 22.7608H65.0151C64.6868 22.7871 64.3628 22.6704 64.1204 22.4384C63.9338 22.2331 63.9039 21.9224 64.0476 21.6826L68.6913 12.486C69.0754 11.9181 69.7037 11.5838 70.3708 11.5924H73.8744C74.2135 11.582 74.5463 11.6888 74.821 11.8961C75.0346 12.0511 75.16 12.3068 75.1553 12.5779L75.17 18.1185L80.8972 12.4078C81.4296 11.9069 82.1149 11.6181 82.8321 11.5924H87.1677C87.4894 11.5731 87.8047 11.6919 88.04 11.9211L88.0415 11.9243ZM48.4193 13.2209C49.2559 14.1564 49.2165 15.4949 48.2986 17.2918C46.3753 21.096 42.7184 22.7954 36.4239 22.7954H29.6844C29.3473 22.816 29.0166 22.694 28.7673 22.457C28.5905 22.2639 28.561 21.971 28.6953 21.7438L32.0008 15.1806H36.7807L34.3598 19.9388H37.4649C41.4445 19.9388 42.6015 19.1266 43.6286 17.096C44.1982 15.9767 44.2864 15.2998 43.9289 14.8986C43.5334 14.4497 42.4862 14.2362 40.6435 14.2362H39.4152C39.4152 14.2362 33.1857 14.2362 32.9837 14.2362C32.5571 14.2462 32.1303 14.2276 31.7059 14.1806C31.408 14.1177 31.2911 13.9896 31.3499 13.8067C31.5922 13.0548 32.048 12.3973 32.6571 11.9211C33.0973 11.6557 33.6071 11.5429 34.1129 11.5988C34.4349 11.5907 34.7491 11.5907 35.0718 11.5907H41.823C45.2864 11.5907 47.4542 12.1258 48.4201 13.2193" fill="#333333"/>
</g>
<defs>
<clipPath id="clip0_217_2292">
<rect width="113" height="32" fill="white"/>
</clipPath>
</defs>
</svg>
