<svg width="69" height="32" viewBox="0 0 69 32" fill="none" xmlns="http://www.w3.org/2000/svg">
<path fill-rule="evenodd" clip-rule="evenodd" d="M25.5158 4.66669C27.1749 4.66669 28.52 6.01824 28.52 7.68535V23.7058C28.52 25.3729 27.1749 26.724 25.5158 26.724C23.8568 26.724 22.5117 25.3729 22.5117 23.7058V7.68535C22.5117 6.01824 23.8568 4.66669 25.5158 4.66669ZM16.5223 12.6771C18.1814 12.6771 19.526 14.0282 19.526 15.6958C19.526 17.362 18.1814 18.714 16.5223 18.714L6.76098 18.7162C6.49029 18.7162 6.27091 18.9362 6.27091 19.2082L6.27135 23.7042C6.27135 25.3709 4.92629 26.722 3.26719 26.722C1.6081 26.722 0.26304 25.3709 0.26304 23.7042V15.6958C0.26304 14.0282 1.6081 12.6771 3.26719 12.6771H16.5223ZM33.6782 4.66678C35.3373 4.66678 36.6824 6.01789 36.6824 7.68544L36.6846 19.4379C36.6846 19.9814 37.1229 20.4223 37.6639 20.4223H44.8058C45.1897 20.4223 45.5224 20.2006 45.6834 19.8779L53.4543 6.42767C54.0505 5.381 55.1739 4.673 56.4606 4.673C57.7491 4.673 58.8739 5.38144 59.4692 6.43122L67.1764 19.6677C67.5612 20.3339 67.7824 21.1086 67.7824 21.9348C67.7824 24.4348 65.7654 26.4614 63.277 26.4614L54.9559 26.4606C53.2977 26.4606 51.9517 25.1094 51.9517 23.4423C51.9517 21.7748 53.2977 20.4237 54.9559 20.4237H60.6577L56.4677 13.2366L49.6929 24.9646C49.1718 25.8597 48.2049 26.4606 47.0992 26.4606L33.6782 26.4614C32.0191 26.4614 30.6741 25.1099 30.6741 23.4432V7.68544C30.6741 6.01789 32.0191 4.66678 33.6782 4.66678ZM18.0245 4.93998C19.684 4.93998 21.0286 6.29153 21.0286 7.95909C21.0286 9.6262 19.684 10.9773 18.0245 10.9773H3.00415C1.34506 10.9773 0 9.6262 0 7.95909C0 6.29153 1.34506 4.93998 3.00415 4.93998H18.0245Z" fill="#333333"/>
</svg>
