<svg width="76" height="22" viewBox="0 0 76 22" fill="none" xmlns="http://www.w3.org/2000/svg">
<path d="M23.3674 14.0012C22.8869 14.0012 22.4321 13.926 22.0085 13.7774C21.583 13.6289 21.2401 13.3318 20.9778 12.8862C20.7156 12.4405 20.5854 11.7712 20.5854 10.8799V3.87259C20.5854 3.10786 20.7266 2.52469 21.009 2.12123C21.2914 1.71778 21.6894 1.44086 22.1974 1.29231C22.7072 1.14377 23.294 1.06858 23.9597 1.06858C24.6254 1.06858 25.2123 1.14744 25.7221 1.30332C26.2319 1.4592 26.6317 1.73795 26.9215 2.1414C27.2112 2.54486 27.3561 3.1207 27.3561 3.87076V5.56894H25.381V3.7864C25.381 3.36094 25.3205 3.04368 25.1995 2.83095C25.0784 2.61822 24.917 2.47701 24.7116 2.40732C24.5062 2.3358 24.2623 2.30095 23.9799 2.30095C23.725 2.30095 23.4921 2.3358 23.2794 2.40732C23.0666 2.47884 22.9016 2.62005 22.7806 2.83095C22.6595 3.04368 22.6008 3.36094 22.6008 3.7864V11.3237C22.6008 11.7473 22.6614 12.0664 22.7806 12.2791C22.9016 12.4919 23.0666 12.6331 23.2794 12.7046C23.4921 12.7761 23.725 12.811 23.9799 12.811C24.3907 12.811 24.7263 12.6881 24.9886 12.4405C25.2508 12.1929 25.381 11.8207 25.381 11.3255V8.77825H24.1285V7.61006H27.3561V13.7683H25.8266L25.7203 12.7064C25.6928 12.7633 25.6561 12.8238 25.6139 12.8862C25.5717 12.9503 25.5351 13.0035 25.5075 13.0457C25.337 13.3006 25.0858 13.5225 24.7538 13.7151C24.4201 13.9058 23.9579 14.0012 23.3637 14.0012H23.3674Z" fill="black"/>
<path d="M29.2487 13.7683V1.21896H34.8971V2.66223H31.3723V6.46204H34.2809V8.05386H31.3723V12.3635H34.8971V13.7646H29.2487V13.7683Z" fill="black"/>
<path d="M40.0851 14.0232C39.4194 14.0232 38.8363 13.9443 38.3338 13.7903C37.8313 13.6344 37.4388 13.3135 37.1546 12.8238C36.8703 12.336 36.7309 11.6024 36.7309 10.6268V3.85242C36.7309 3.08769 36.8722 2.50451 37.1546 2.10106C37.437 1.6976 37.8349 1.41885 38.3429 1.26297C38.8528 1.10709 39.4396 1.02823 40.1053 1.02823C40.771 1.02823 41.3542 1.11076 41.8567 1.27214C42.3591 1.43536 42.7589 1.71778 43.056 2.12123C43.3531 2.52469 43.5017 3.10053 43.5017 3.85059V10.603C43.5017 11.6079 43.3531 12.3507 43.056 12.833C42.7589 13.3153 42.3555 13.6325 41.8457 13.7884C41.3358 13.9443 40.749 14.0213 40.0833 14.0213L40.0851 14.0232ZM40.0851 12.8128C40.3529 12.8128 40.5949 12.7743 40.8077 12.6954C41.0204 12.6184 41.1818 12.4717 41.2955 12.2608C41.4092 12.0481 41.466 11.7381 41.466 11.3273V3.78824C41.466 3.39212 41.4092 3.08402 41.2955 2.86396C41.1818 2.64572 41.0186 2.49534 40.8077 2.41832C40.5949 2.3413 40.3547 2.30095 40.0851 2.30095C39.8155 2.30095 39.579 2.33946 39.3736 2.41832C39.1682 2.49534 39.0086 2.64572 38.8968 2.86396C38.7831 3.08402 38.7262 3.39212 38.7262 3.78824V11.3255C38.7262 11.7363 38.7831 12.0481 38.8968 12.259C39.0105 12.4717 39.1682 12.6166 39.3736 12.6936C39.579 12.7706 39.8155 12.811 40.0851 12.811V12.8128Z" fill="black"/>
<path d="M47.2813 13.7683V2.66406H45.286V1.21896H51.358V2.66223H49.3188V13.7664H47.2795L47.2813 13.7683Z" fill="black"/>
<path d="M53.1681 13.7683V1.21896H58.8165V2.66223H55.2917V6.46204H58.2003V8.05386H55.2917V12.3635H58.8165V13.7646H53.1681V13.7683Z" fill="black"/>
<path d="M64.0485 14.0232C63.3975 14.0232 62.8125 13.9443 62.2972 13.7903C61.78 13.6344 61.3766 13.3135 61.0868 12.8238C60.7971 12.336 60.6522 11.6024 60.6522 10.6268V3.85242C60.6522 3.08769 60.7971 2.50451 61.0868 2.10106C61.3766 1.6976 61.78 1.41885 62.2972 1.26297C62.8143 1.10709 63.4048 1.02823 64.0705 1.02823C64.7363 1.02823 65.3378 1.11076 65.8329 1.27214C66.3281 1.43536 66.7169 1.71778 67.0011 2.12123C67.2835 2.52469 67.4266 3.10053 67.4266 3.85059V6.3135H65.3873V3.7864C65.3873 3.3481 65.3304 3.02534 65.2167 2.81994C65.103 2.61455 64.9472 2.47701 64.7491 2.40548C64.551 2.33396 64.3255 2.29912 64.0705 2.29912C63.8156 2.29912 63.5882 2.33396 63.3902 2.40548C63.1921 2.47701 63.0362 2.61455 62.9225 2.81994C62.8088 3.02534 62.752 3.3481 62.752 3.7864V11.3237C62.752 11.7473 62.8088 12.0664 62.9225 12.2791C63.0362 12.4919 63.1903 12.6331 63.3902 12.7046C63.5882 12.7761 63.8156 12.811 64.0705 12.811C64.3383 12.811 64.5694 12.7761 64.7601 12.7046C64.9508 12.6331 65.103 12.4919 65.2167 12.2791C65.3304 12.0664 65.3873 11.7491 65.3873 11.3237V9.0735H67.4266V10.6011C67.4266 11.6061 67.2854 12.3488 67.0011 12.8311C66.7169 13.3135 66.3281 13.6307 65.8329 13.7866C65.3378 13.9425 64.7436 14.0195 64.0504 14.0195L64.0485 14.0232Z" fill="black"/>
<path d="M69.2696 13.7683V1.21896H71.2869V6.48405H73.9827V1.21896H76V13.7664H73.9827V8.01351H71.2869V13.7664H69.2696V13.7683Z" fill="black"/>
<path d="M21.0054 17.5149H22.9878V17.8652H21.0054V19.4918H20.6001V15.6572H23.2299V16.0074H21.0054V17.5149Z" fill="black"/>
<path d="M24.0661 15.659H24.4714V19.4937H24.0661V15.659Z" fill="black"/>
<path d="M25.3517 19.0278L25.5112 18.7161C25.7845 18.9838 26.2723 19.1819 26.7766 19.1819C27.4937 19.1819 27.8072 18.8811 27.8072 18.5015C27.8072 17.4489 25.4452 18.0962 25.4452 16.6768C25.4452 16.112 25.8835 15.6242 26.8591 15.6242C27.2919 15.6242 27.7412 15.7507 28.0475 15.9634L27.9099 16.2862C27.5817 16.0716 27.1984 15.9689 26.8573 15.9689C26.1567 15.9689 25.8432 16.2807 25.8432 16.664C25.8432 17.7166 28.2052 17.0803 28.2052 18.4777C28.2052 19.0425 27.7559 19.523 26.7748 19.523C26.1989 19.523 25.6359 19.3194 25.3498 19.0242L25.3517 19.0278Z" fill="black"/>
<path d="M32.2893 15.659V19.4937H31.8895V17.724H29.4908V19.4937H29.0855V15.659H29.4908V17.3682H31.8895V15.659H32.2893Z" fill="black"/>
<path d="M33.5363 15.659H33.9416V19.4937H33.5363V15.659Z" fill="black"/>
<path d="M38.3943 15.659V19.4937H38.0605L35.5958 16.3815V19.4937H35.1905V15.659H35.5243L37.9945 18.7693V15.659H38.3943Z" fill="black"/>
<path d="M42.3408 17.5754H42.7296V19.0388C42.3683 19.3616 41.853 19.5267 41.3212 19.5267C40.1548 19.5267 39.3002 18.6996 39.3002 17.5772C39.3002 16.4549 40.1548 15.626 41.3267 15.626C41.908 15.626 42.4105 15.813 42.7516 16.1798L42.4985 16.4366C42.1758 16.1193 41.7925 15.9873 41.3432 15.9873C40.3951 15.9873 39.7 16.6603 39.7 17.5754C39.7 18.4905 40.3951 19.1636 41.3377 19.1636C41.7045 19.1636 42.0437 19.081 42.3408 18.8683V17.5754Z" fill="black"/>
<path d="M48.0515 19.5523L47.5197 19.004C47.1969 19.3488 46.7586 19.5248 46.2378 19.5248C45.4878 19.5248 44.9504 19.1305 44.9504 18.5492C44.9504 18.0944 45.2127 17.7606 45.9151 17.3553C45.5428 16.9721 45.4327 16.741 45.4327 16.4457C45.4327 15.9579 45.8105 15.6297 46.4029 15.6297C46.9457 15.6297 47.296 15.9139 47.296 16.3907C47.296 16.774 47.0649 17.0417 46.4414 17.4049L47.494 18.4887C47.6096 18.287 47.6976 18.0394 47.7508 17.7496L48.068 17.8487C47.9965 18.1934 47.881 18.4887 47.7288 18.7308L48.2771 19.2956L48.0534 19.5523H48.0515ZM47.2905 18.7693L46.1351 17.5809C45.5208 17.9312 45.3355 18.1733 45.3355 18.5125C45.3355 18.9288 45.7078 19.2021 46.2617 19.2021C46.678 19.2021 47.0282 19.059 47.2905 18.7693ZM45.7959 16.4421C45.7959 16.6658 45.8784 16.8253 46.2287 17.1811C46.7825 16.8639 46.9622 16.6713 46.9622 16.3981C46.9622 16.1248 46.7586 15.9212 46.4029 15.9212C46.0196 15.9212 45.794 16.134 45.794 16.4421H45.7959Z" fill="black"/>
<path d="M53.6082 15.659V19.4937H53.2084V17.724H50.8079V19.4937H50.4026V15.659H50.8079V17.3682H53.2084V15.659H53.6082Z" fill="black"/>
<path d="M54.8223 17.8542V15.6572H55.2275V17.8377C55.2275 18.7473 55.6548 19.1636 56.3994 19.1636C57.144 19.1636 57.5768 18.7473 57.5768 17.8377V15.6572H57.971V17.8542C57.971 18.9545 57.3805 19.5248 56.3994 19.5248C55.4183 19.5248 54.8223 18.9545 54.8223 17.8542Z" fill="black"/>
<path d="M62.3962 15.659V19.4937H62.0624L59.5977 16.3815V19.4937H59.1924V15.659H59.5262L61.9964 18.7693V15.659H62.3962Z" fill="black"/>
<path d="M64.3878 16.0093H63.0399V15.659H66.141V16.0093H64.7931V19.4937H64.3878V16.0093Z" fill="black"/>
<path d="M66.7847 15.659H67.19V19.4937H66.7847V15.659Z" fill="black"/>
<path d="M71.6427 15.659V19.4937H71.3089L68.8442 16.3815V19.4937H68.4389V15.659H68.7726L71.2429 18.7693V15.659H71.6427Z" fill="black"/>
<path d="M75.5892 17.5754H75.978V19.0388C75.6167 19.3616 75.1014 19.5267 74.5696 19.5267C73.4032 19.5267 72.5486 18.6996 72.5486 17.5772C72.5486 16.4549 73.4032 15.626 74.5751 15.626C75.1564 15.626 75.6607 15.813 76 16.1798L75.7487 16.4366C75.426 16.1193 75.0427 15.9873 74.5916 15.9873C73.6434 15.9873 72.9484 16.6603 72.9484 17.5754C72.9484 18.4905 73.6434 19.1636 74.5861 19.1636C74.9528 19.1636 75.2921 19.081 75.5892 18.8683V17.5754Z" fill="black"/>
<path d="M11.4288 17.4819C11.581 17.3187 11.8488 17.0583 12.188 16.8235C12.3054 16.741 12.3347 16.5796 12.254 16.4622C12.1715 16.3449 12.0101 16.3155 11.8928 16.3962C11.5095 16.6621 11.2142 16.9519 11.0437 17.1334C10.6476 16.796 9.64442 16.0551 8.43772 16.0551C6.91009 16.0551 5.70156 17.2471 5.65021 17.2985C5.54935 17.3994 5.54935 17.5644 5.65021 17.6653C5.70156 17.7166 6.91009 18.9068 8.43772 18.9068C9.64258 18.9068 10.6476 18.1659 11.0437 17.8285C11.2142 18.0119 11.5095 18.2998 11.8928 18.5657C11.9386 18.5969 11.99 18.6116 12.0413 18.6116C12.1238 18.6116 12.2045 18.573 12.254 18.4997C12.3366 18.3823 12.3072 18.2191 12.188 18.1384C11.8488 17.9037 11.5828 17.6433 11.4288 17.48V17.4819ZM8.43589 18.3878C7.46392 18.3878 6.60567 17.7918 6.22605 17.4819C6.6075 17.1701 7.46392 16.5759 8.43589 16.5759C9.40785 16.5759 10.2661 17.172 10.6476 17.4819C10.2679 17.7918 9.41335 18.3878 8.43589 18.3878Z" fill="black"/>
<path d="M15.7531 0.688965H1.11867C0.502485 0.688965 0 1.19145 0 1.80764V12.6606C0 14.9823 0.959124 17.2545 2.63163 18.8958C4.22161 20.4564 6.28107 21.311 8.44322 21.311C8.49457 21.311 8.54592 21.311 8.59727 21.311C13.16 21.2248 16.8718 17.4415 16.8718 12.877V1.80764C16.8718 1.18962 16.3693 0.688965 15.7531 0.688965ZM0.51899 12.6606V9.70069C0.709715 9.66768 0.902273 9.64934 1.09667 9.64934C2.90855 9.64934 4.38116 11.1238 4.38116 12.9338C4.38116 13.3721 4.2913 13.7939 4.12625 14.1919C3.86033 14.1185 3.54124 14.0617 3.17813 14.0598C2.86637 14.0562 2.55461 14.1625 2.22267 14.2744C1.89074 14.3863 1.54597 14.5018 1.20486 14.5018C1.05999 14.5018 0.902273 14.4798 0.718884 14.434C0.586844 13.8526 0.517156 13.2584 0.517156 12.6588L0.51899 12.6606ZM8.58626 20.7902C6.5048 20.8214 4.52053 20.0255 2.99474 18.5254C1.99344 17.5424 1.26538 16.3192 0.867429 14.9951C0.986632 15.0135 1.0985 15.0226 1.2067 15.0226C1.63399 15.0226 2.03562 14.8869 2.39139 14.7677C2.67748 14.6705 2.94706 14.5807 3.16896 14.5807C3.17079 14.5807 3.17263 14.5807 3.17446 14.5807C3.99054 14.588 4.56455 14.9089 4.66725 14.9713C4.76261 15.0428 4.91115 15.0373 4.99918 14.9603C5.14772 14.8759 5.70889 14.588 6.48463 14.5825C6.71203 14.5825 6.97794 14.6724 7.26403 14.7696C7.61614 14.8888 8.01593 15.0245 8.43955 15.0245C8.86318 15.0245 9.26847 14.8888 9.62424 14.7696C9.91033 14.6724 10.1799 14.5825 10.4018 14.5825C10.4036 14.5825 10.4055 14.5825 10.4073 14.5825C11.3041 14.5898 11.9111 14.9786 11.9166 14.9823C11.9588 15.0098 12.023 15.0263 12.0743 15.0263C12.1257 15.0263 12.1733 15.0116 12.2155 14.9841C12.221 14.9805 12.8354 14.5898 13.7395 14.5825C13.9614 14.5825 14.2328 14.6724 14.5189 14.7696C14.871 14.8888 15.2708 15.0245 15.6944 15.0245C15.8099 15.0245 15.9292 15.0153 16.0575 14.9933C15.1351 18.2705 12.1367 20.7242 8.58626 20.7902ZM16.3509 12.8752C16.3509 13.407 16.2978 13.9296 16.1951 14.434C16.0062 14.4798 15.8448 14.5036 15.6944 14.5036C15.6504 14.5036 15.6046 14.4963 15.5587 14.4926V13.2291C15.5587 13.086 15.4432 12.9687 15.2983 12.9687H13.2645L15.0379 11.1385C15.1112 11.0633 15.1314 10.9514 15.0892 10.8542C15.0489 10.7588 14.9535 10.6983 14.8508 10.6983C14.8508 10.6983 14.8472 10.6983 14.8453 10.6983L14.2126 10.7093L15.6742 9.057C15.7421 8.97997 15.7586 8.87177 15.7164 8.77825C15.6742 8.68472 15.5825 8.6242 15.4799 8.6242H15.1277L16.3473 7.27812V12.8752H16.3509ZM16.3509 6.50422L14.352 8.71039C14.2823 8.78558 14.2658 8.89561 14.3062 8.98914C14.3483 9.08267 14.44 9.14319 14.5446 9.14319H14.9058L13.4351 10.8065C13.3672 10.8835 13.3507 10.9936 13.3947 11.0871C13.4387 11.1806 13.5323 11.2467 13.635 11.2375L14.231 11.2265L12.4686 13.0457C12.3952 13.1209 12.3751 13.2328 12.4154 13.3281C12.4558 13.4235 12.5511 13.4858 12.6538 13.4858H15.0415V14.3863C14.9223 14.3514 14.805 14.3129 14.6876 14.2726C14.3575 14.1607 14.0457 14.0507 13.7377 14.058C12.9289 14.0653 12.3256 14.3294 12.0688 14.4651C11.8121 14.3294 11.2142 14.0635 10.4128 14.058C10.0956 14.0543 9.7893 14.1607 9.45736 14.2726C9.12543 14.3844 8.78066 14.5018 8.43955 14.5018C8.09845 14.5018 7.76101 14.3863 7.43091 14.2744C7.10081 14.1625 6.78539 14.0543 6.48096 14.0598C5.68505 14.0672 5.08721 14.3239 4.82313 14.4615C4.76994 14.434 4.70026 14.4009 4.6214 14.3661C4.80662 13.9131 4.90015 13.4327 4.90015 12.9357C4.90015 10.8377 3.1928 9.13035 1.09483 9.13035C0.900439 9.13035 0.707881 9.14686 0.517156 9.1762V1.80764C0.517156 1.47754 0.786738 1.20796 1.11684 1.20796H15.7494C16.0795 1.20796 16.3491 1.47754 16.3491 1.80764V6.50239L16.3509 6.50422Z" fill="black"/>
<path d="M14.0714 6.00357C13.9596 6.01274 13.7523 6.02925 13.6936 6.00357C13.6643 5.9889 13.635 5.9724 13.6038 5.95589C13.3672 5.82202 13.0096 5.62212 12.3182 5.95039C12.0963 6.05676 11.9148 6.16312 11.7534 6.25665C11.5498 6.37585 11.3903 6.46938 11.2289 6.51523C10.8364 6.55741 10.466 6.14111 10.0369 5.59828C9.94884 5.48825 9.86632 5.38188 9.78746 5.29202C9.06491 4.45944 8.62111 4.0138 7.96641 3.45814C7.56112 3.1152 6.56532 2.3578 6.05733 2.71358C5.81343 2.88413 5.77491 3.38845 5.78408 3.76256C5.16056 3.35544 4.66358 3.09136 4.32247 3.39395C4.00338 3.6782 3.99421 5.96873 4.87814 7.39183C5.3036 8.0777 6.03716 8.74707 7.2842 8.78925C7.08431 9.09551 6.99812 9.43111 6.96327 9.64384C5.93079 9.86024 5.47599 10.702 5.37879 11.1421C5.35679 11.2393 5.39163 11.3384 5.47049 11.4007L6.10318 11.9087C6.22238 12.0059 6.36909 12.0554 6.51947 12.0554C6.58549 12.0554 6.65335 12.0462 6.71753 12.0242C6.93026 11.9582 7.09531 11.7895 7.1595 11.5749C7.32455 11.0119 7.75368 10.801 7.82887 10.7662C10.0901 10.2123 10.7649 9.057 11.0895 8.50133C11.1317 8.42797 11.1702 8.36379 11.2051 8.31244C11.4655 7.92916 12.0395 7.52937 12.4484 7.56605C12.8464 7.60089 13.16 7.36065 13.3892 7.1846C13.4772 7.11674 13.6111 7.01221 13.6588 7.00854C13.9541 7.02321 14.429 6.78848 14.6161 6.58858C14.7316 6.46388 14.7445 6.34834 14.7353 6.27315C14.6949 5.95222 14.3373 5.98157 14.0751 6.00174L14.0714 6.00357ZM6.36726 3.14087C6.5103 3.12253 6.98161 3.30776 7.63081 3.85609C8.27084 4.39709 8.68346 4.81338 9.39684 5.63313C9.4702 5.71749 9.54906 5.81652 9.63158 5.92105C9.72144 6.03475 9.8223 6.16129 9.9305 6.28599C9.52705 6.13561 9.08325 5.92655 8.67429 5.66614C7.95541 5.20766 7.13566 4.66117 6.47546 4.22103L6.33058 4.12384C6.33058 4.12384 6.33058 4.12017 6.33058 4.11834C6.2719 3.64336 6.32141 3.25641 6.36909 3.13904L6.36726 3.14087ZM13.0683 6.77747C12.8812 6.92235 12.685 7.0709 12.4943 7.05439C11.8708 6.99571 11.128 7.50186 10.7723 8.02452C10.7319 8.08504 10.6879 8.15839 10.6384 8.24275C10.3266 8.77641 9.74712 9.76855 7.68583 10.2692C7.67482 10.271 7.66565 10.2747 7.65465 10.2784C7.62531 10.2894 6.91192 10.5681 6.65885 11.43C6.63868 11.4997 6.58366 11.5236 6.55982 11.5309C6.53231 11.5401 6.47913 11.5474 6.42778 11.5052L5.93446 11.1091C6.04633 10.8267 6.38193 10.2289 7.22919 10.1262C7.35572 10.1115 7.45109 10.007 7.45842 9.88041C7.45842 9.87308 7.50244 9.08267 8.03793 8.75991C8.04893 8.75441 8.0581 8.74707 8.06727 8.73973C8.50741 8.67188 8.99889 8.53617 9.54722 8.31427C9.6811 8.26109 9.74345 8.10888 9.69026 7.975C9.63708 7.84113 9.48487 7.77694 9.351 7.83196C7.73534 8.48666 6.50847 8.41147 5.70523 7.60822C4.59206 6.49505 4.58105 4.26688 4.69659 3.7809C4.88915 3.79007 5.47782 4.18069 5.76941 4.37508L6.18754 4.65383C6.84774 5.09396 7.67115 5.6423 8.39371 6.10444C9.29965 6.68211 10.3505 7.02505 10.919 7.06539C11.0492 7.07456 11.1665 7.06356 11.2784 7.03972C11.4031 7.02688 11.5315 6.98837 11.6654 6.92052C11.691 6.90768 11.713 6.88751 11.7314 6.86733C11.8249 6.81782 11.9203 6.7628 12.0175 6.70595C12.1697 6.61793 12.3421 6.51706 12.5438 6.41987C12.9913 6.20713 13.1655 6.30616 13.3507 6.40886C13.3929 6.4327 13.4351 6.45654 13.4754 6.47488C13.4993 6.48589 13.5231 6.49505 13.5506 6.50239C13.3764 6.53907 13.2223 6.65827 13.0701 6.77564L13.0683 6.77747Z" fill="black"/>
</svg>
