<svg width="41" height="32" viewBox="0 0 41 32" fill="none" xmlns="http://www.w3.org/2000/svg">
<g clip-path="url(#clip0_217_2329)">
<path fill-rule="evenodd" clip-rule="evenodd" d="M29.2832 20.9147C30.109 20.9187 30.8579 21.2811 31.294 22.2099C31.3705 22.3729 31.4364 22.557 31.4926 22.7422C31.6645 23.3096 31.7434 23.8862 31.7434 23.8862L31.7531 26.2779C31.7531 26.2779 31.7136 27.4286 31.3775 28.2042C31.3305 28.3125 31.2785 28.4144 31.2216 28.5094C30.7626 29.2834 29.9958 29.6467 29.1564 29.6133C28.3008 29.5791 27.9298 29.0242 27.9298 29.0242C27.9298 29.0242 27.7084 28.9784 27.6349 29.0079C27.5613 29.0374 27.5324 29.2316 27.5324 29.2316L27.5375 30.4318L27.5398 30.9954C27.5398 30.9954 27.5997 31.2049 27.7921 31.4301C27.9848 31.6551 28.1768 31.7309 28.1768 31.7309L28.178 32L24.845 31.9836L24.8439 31.7145C24.8439 31.7145 25.0939 31.5513 25.2556 31.4175C25.4173 31.2839 25.5487 30.9855 25.5487 30.9855L25.5466 30.4319L25.5387 28.5095L25.5151 22.7421L25.5117 21.9124C25.5117 21.9124 25.3782 21.7473 25.1413 21.5221C24.9045 21.2967 24.6979 21.2806 24.6979 21.2806L24.697 21.0117L27.5729 21.0259C27.5729 21.0259 27.5587 21.1902 27.5743 21.3995C27.59 21.6088 27.7519 21.5797 27.7519 21.5797C27.7519 21.5797 28.4572 20.9106 29.2832 20.9147ZM22.509 20.8813C23.335 20.8853 24.1328 21.248 24.52 22.1766C24.5929 22.3511 24.6579 22.5472 24.7146 22.7423C24.8772 23.3022 24.9695 23.8529 24.9695 23.8529L24.9792 26.2445C24.9792 26.2445 24.9396 27.3953 24.6035 28.1709C24.5513 28.2915 24.4927 28.4042 24.4282 28.5094C23.9672 29.2602 23.2101 29.6129 22.3825 29.5799C21.5269 29.5458 21.1561 28.9909 21.1561 28.9909C21.1561 28.9909 20.9345 28.945 20.8609 28.9746C20.7871 29.004 20.7587 29.1983 20.7587 29.1983L20.7635 30.4318L20.7659 30.962C20.7659 30.962 20.8255 31.1716 21.0184 31.3967C21.2109 31.6218 21.4029 31.6975 21.4029 31.6975L21.404 31.9667L18.0709 31.9502L18.0699 31.6812C18.0699 31.6812 18.3199 31.518 18.4816 31.3842C18.6432 31.2506 18.7748 30.9522 18.7748 30.9522L18.7727 30.4318L18.7648 28.5094L18.7413 22.7421L18.7377 21.8791C18.7377 21.8791 18.6043 21.714 18.3675 21.4887C18.1305 21.2634 17.924 21.2473 17.924 21.2473L17.9229 20.9784L20.7987 20.9925C20.7987 20.9925 20.7848 21.1567 20.8003 21.3662C20.8158 21.5755 20.978 21.5464 20.978 21.5464C20.978 21.5464 21.6832 20.8772 22.509 20.8813ZM35.7925 20.7236C37.872 20.7489 37.6583 22.5414 37.6583 22.5414L37.6589 22.7421L37.6818 28.3111C37.6818 28.3111 37.689 28.4 37.7343 28.5094H37.7326C37.7818 28.6262 37.8713 28.7659 38.0378 28.8509C38.3281 28.9991 38.525 28.973 38.525 28.973L38.5263 29.2868L35.975 29.2743L35.8263 28.9597L35.4428 28.9577L35.4382 28.9667C35.4203 28.9966 35.3362 29.1005 34.972 29.2693C34.5894 29.4469 34.1076 29.7572 33.1035 29.4234C32.667 29.2784 32.3851 28.9051 32.2055 28.5094L32.2067 28.5088C31.9867 28.0251 31.9201 27.5068 31.9113 27.3261C31.8951 26.9973 32.0698 26.3852 32.5539 25.8047C33.0383 25.2241 33.9508 24.7802 34.9514 24.247C35.9521 23.7138 35.8767 23.295 35.8762 23.1455C35.8758 23.0699 35.8751 22.8951 35.7601 22.7421L35.7184 22.693C35.5957 22.5652 35.3773 22.4638 34.9885 22.4684C34.7111 22.4719 34.3951 22.5866 34.0919 22.7421L34.0896 22.7427C33.5108 23.0415 32.9768 23.4919 32.8524 23.5998L32.8252 23.6236L32.8218 22.7422L32.8174 21.6956C32.8174 21.6956 33.6686 20.6979 35.7925 20.7236ZM15.6798 20.6235C17.7594 20.6487 17.5454 22.4412 17.5454 22.4412L17.5467 22.7421L17.569 28.211C17.569 28.211 17.5813 28.3588 17.6713 28.5094L17.7163 28.5764C17.7669 28.6423 17.8347 28.7046 17.9251 28.7507C18.2154 28.899 18.4123 28.8728 18.4123 28.8728L18.4136 29.1868L15.8622 29.1742L15.7135 28.8595L15.3301 28.8576L15.3234 28.8711C15.2987 28.9148 15.1942 29.06 14.8301 29.2289C14.4474 29.4063 14.0448 29.7053 13.0461 29.3547C12.5882 29.1938 12.299 28.8647 12.1159 28.5094H12.1174C11.8503 27.9928 11.8081 27.4207 11.7986 27.2259C11.7826 26.8971 11.957 26.285 12.4413 25.7046C12.9256 25.1239 13.8382 24.68 14.8388 24.1468C15.8395 23.6136 15.764 23.1949 15.7635 23.0454C15.7633 22.9861 15.7627 22.8657 15.707 22.7424L15.6829 22.6956C15.5844 22.5244 15.365 22.3625 14.8758 22.3684C14.5419 22.3724 14.1519 22.5378 13.7958 22.7421H13.7953C13.2081 23.0799 12.7125 23.5236 12.7125 23.5236L12.7094 22.7421L12.7046 21.5954C12.7046 21.5954 12.709 21.5903 12.7178 21.5809L12.758 21.5402C12.9738 21.3313 13.8594 20.6014 15.6798 20.6235ZM2.23654 19.2974L6.62636 19.319L6.59634 19.6064C6.59634 19.6064 6.15968 19.7767 5.89495 20.0054C5.66237 20.2064 5.58424 20.4495 5.58424 20.4495L5.59367 22.7421L5.59391 22.8071L6.01581 22.8092L6.07665 22.7421L8.14641 20.4621C8.14641 20.4621 8.25484 20.2326 8.25467 20.1752C8.25467 20.1752 8.14404 19.887 8.03428 19.786C7.92459 19.6848 7.76805 19.6122 7.76805 19.6122L7.75122 19.3246L12.5317 19.3481L12.5328 19.6356C12.5328 19.6356 12.3293 19.5339 11.7532 19.9911C11.5181 20.1776 10.8948 20.8337 10.2393 21.5452L9.95745 21.8523C9.67567 22.1604 9.39731 22.4679 9.15036 22.7421C8.6431 23.3043 8.26918 23.7258 8.26918 23.7258L8.27068 24.0995L10.9747 28.2529C10.9747 28.2529 11.0639 28.3647 11.2131 28.5084C11.2721 28.565 11.3393 28.6256 11.4138 28.6862C11.6803 28.9033 12.2275 29.0208 12.2275 29.0208L12.2912 29.3231L8.27629 29.3033L8.27508 29.0014C8.27508 29.0014 8.4149 28.8153 8.47679 28.6718C8.49604 28.6272 8.50165 28.5684 8.50019 28.5094L8.50154 28.5088C8.49703 28.3769 8.45944 28.2404 8.45944 28.2404L6.58952 25.5863L6.16808 25.6561C6.16808 25.6561 5.98076 25.7127 5.81 25.9706C5.6659 26.1882 5.60877 26.4296 5.60877 26.4296L5.6161 28.2265C5.6161 28.2265 5.61652 28.3201 5.76519 28.5087C5.80116 28.5536 5.84499 28.6037 5.89912 28.6591C6.18148 28.948 6.4941 28.9925 6.4941 28.9925L6.49537 29.2945L2.46485 29.2748L2.46356 28.9727C2.46356 28.9727 2.72848 28.8161 2.94644 28.6445C2.99911 28.6031 3.04266 28.5567 3.07845 28.5094C3.19075 28.3625 3.22597 28.2147 3.22597 28.2147L3.2036 22.7421L3.19417 20.4377C3.19417 20.4377 3.08365 20.1642 2.8328 19.9472C2.582 19.7304 2.23769 19.585 2.23769 19.585L2.23654 19.2974ZM15.6999 25.5412C15.6999 25.5412 15.0518 25.7323 14.5812 26.0737C14.0246 26.4777 13.8769 26.9373 13.8783 27.296C13.8798 27.6547 14.0882 28.1341 14.693 28.1819C15.298 28.2296 15.7073 27.3648 15.7073 27.3648L15.6999 25.5412ZM35.8122 25.5218C35.8122 25.5218 35.164 25.7129 34.6935 26.0543C34.1368 26.4583 33.9892 26.9178 33.9906 27.2765C33.9922 27.6353 34.2004 28.1146 34.8053 28.1624C35.4101 28.2103 35.8196 27.3454 35.8196 27.3454L35.8122 25.5218ZM28.6966 22.4961C28.3949 22.4946 28.1724 22.5976 28.0089 22.7423C27.6282 23.0789 27.5657 23.6416 27.5657 23.6416L27.5784 26.8105C27.5784 26.8105 27.7165 27.9945 28.7486 28.0269C29.8844 28.0623 29.9225 26.5827 29.9225 26.5827L29.9114 23.8325C29.9114 23.8325 29.7994 23.1289 29.353 22.7421C29.1853 22.5978 28.9705 22.4974 28.6966 22.4961ZM21.8644 22.4642C21.5417 22.4627 21.3097 22.5807 21.1431 22.7415C20.7925 23.0805 20.7335 23.6095 20.7335 23.6095L20.7464 26.7783C20.7464 26.7783 20.8843 27.9627 21.9164 27.9948C23.0521 28.0304 23.0905 26.5508 23.0905 26.5508L23.0792 23.8005C23.0792 23.8005 22.9728 23.1327 22.5546 22.7421C22.3823 22.58 22.157 22.4657 21.8644 22.4642ZM15.7831 0.000367383L15.8883 0.00375772C16.2536 0.0377453 16.3654 0.231461 16.3654 0.231461L16.6194 0.232687C16.7466 0.233332 16.7946 0.330084 16.8901 0.410932C16.9857 0.491893 17.0013 0.427595 17.1126 0.476391C17.224 0.525219 17.4793 0.864368 17.6718 1.34802C17.8001 1.67046 17.8158 2.05671 17.8173 2.40715L17.8176 2.74197L17.821 2.89351C17.8387 3.32801 17.8568 3.9073 17.8416 4.05204C17.8263 4.19677 17.6031 3.95435 17.6515 4.13165C17.6998 4.30876 17.8908 4.42236 17.9072 4.55119C17.9236 4.6799 17.828 4.59907 17.8443 4.72782C17.8608 4.85661 18.0671 4.82546 18.0991 4.89005C18.1311 4.95457 17.9725 5.01807 17.9889 5.13082C18.0052 5.24353 18.1481 5.22815 18.1481 5.22815C18.1481 5.22815 18.18 5.26042 18.1645 5.35699C18.149 5.45337 18.0698 5.48523 18.0384 5.56543C18.0069 5.64581 18.0389 5.69422 18.0389 5.69422C18.0389 5.69422 18.4664 5.96231 18.7879 6.40586C19.1392 6.89027 19.4273 7.47096 19.763 8.03577C20.0987 8.60064 20.5474 9.63252 20.5474 9.63252C20.5474 9.63252 20.9398 8.54037 21.3976 7.88288L22.234 6.6803C22.234 6.6803 22.1539 6.51897 22.0584 6.42193C21.9627 6.32489 21.9467 6.26054 22.0098 6.21255C22.0732 6.16456 22.2953 6.08523 22.3265 5.95657C22.3575 5.82815 22.1188 5.64986 22.1188 5.64986C22.1181 5.52736 22.2037 5.35939 22.4348 5.31357C22.5934 5.28219 22.4967 4.94385 22.4967 4.94385C22.4967 4.94385 22.1912 4.70882 22.129 4.23409C22.0633 3.73494 22.0327 4.04047 21.7765 3.44389C21.6994 3.265 21.7746 3.02553 21.8216 2.86478C21.8685 2.70415 21.8988 2.35037 21.9298 2.1735C21.9611 1.99673 22.1345 1.72398 22.3712 1.40336C22.608 1.08273 22.8618 1.01961 23.0998 0.988576C23.3378 0.957476 23.5127 1.02277 23.6075 0.926747C23.7023 0.830575 23.6711 0.927021 23.9723 0.831994C24.2737 0.736951 24.1941 0.720401 24.3847 0.721401C24.5753 0.722337 24.7821 0.81996 24.8772 0.820364C24.9725 0.820896 24.972 0.724272 25.115 0.7089C25.2577 0.693479 25.3537 0.838737 25.5445 0.968461C25.7358 1.0981 25.8151 1.13067 25.9266 1.24385C26.0384 1.35705 26.0402 1.79145 26.0402 1.79145C26.0402 1.79145 26.1041 1.90443 26.2317 2.04982C26.3594 2.19526 26.439 2.29223 26.5031 2.42125C26.5671 2.55026 26.5995 2.71136 26.5995 2.71136C26.5995 2.71136 26.9018 2.85762 27.0607 2.92274C27.2199 2.98786 27.1882 3.02001 27.1727 3.10032C27.157 3.18077 27.0631 3.4538 27.1271 3.63104C27.1914 3.80845 27.1281 3.85637 27.1281 3.85637C27.1282 3.86749 27.1408 3.90647 27.2402 4.08219C27.3682 4.308 27.416 4.421 27.4325 4.53364C27.4489 4.6464 27.354 4.75852 27.2752 4.87081C27.1963 4.98305 27.2604 5.12806 27.2604 5.12806C27.2604 5.12806 27.2683 5.14057 27.2831 5.16391L27.347 5.26469C27.6488 5.74085 28.6494 7.32201 28.9064 7.75891C29.2101 8.27536 29.5152 9.14578 29.5152 9.14578C29.5055 9.15643 29.5101 9.19663 29.8018 9.37235C30.152 9.58332 30.6442 9.58573 30.6442 9.58573L30.7867 9.50593C30.9294 9.42619 31.3097 9.25113 31.6111 9.2204C31.9125 9.18965 32.1031 9.17457 32.2139 9.11069C32.3247 9.04685 32.2923 8.85371 32.4193 8.83811C32.546 8.82274 32.8646 9.04956 32.9606 9.24316C33.0565 9.43665 32.9936 9.56513 32.9786 9.77422C32.9696 9.90125 32.9196 10.0873 32.8715 10.2463L32.8713 10.2464L32.8484 10.321C32.8257 10.3927 32.8049 10.4548 32.7913 10.4974C32.744 10.6419 32.8081 10.7871 32.8081 10.7871C32.8081 10.7871 33.1912 11.2877 33.6381 11.8531C34.0379 12.359 34.6553 13.2652 34.7809 13.4504L34.8036 13.484C35.2314 14.0882 35.6293 14.6124 35.9835 15.0519C36.529 15.7275 36.971 16.2017 37.2606 16.4566C37.7385 16.8773 38.0085 16.8465 38.4699 17.1383C38.9316 17.4302 39.3459 17.7863 39.8548 18.0462C40.3639 18.3062 40.5547 18.3715 40.7294 18.3724C40.904 18.3732 40.9995 18.4059 41 18.5346C41.0005 18.6633 40.8899 18.7754 40.6202 18.8385C40.4774 18.8718 40.2721 18.8868 40.0352 18.8973H40.0348C39.8247 18.9079 39.5894 18.9147 39.3505 18.9287C39.1213 18.9421 38.866 18.9258 38.6169 18.8976C38.3124 18.8636 38.02 18.8125 37.794 18.7762C37.3809 18.7098 36.6035 18.7864 36.1272 18.784C35.6507 18.7818 35.5226 18.4594 35.5057 18.2018C35.4888 17.9442 35.5982 17.5586 35.5336 17.317C35.4693 17.0754 35.1184 16.6713 34.3063 16.0881C33.791 15.718 33.3526 15.4001 32.9138 15.0524L32.6605 14.8472C32.4908 14.7079 32.3189 14.5617 32.1403 14.404C31.6708 13.9893 31.166 12.9672 31.166 12.9672C31.166 12.9672 30.6766 13.6566 30.3615 14.2344C30.2084 14.5151 30.0738 14.7618 29.9017 15.0524C29.7192 15.3588 29.4952 15.7135 29.1631 16.2077C28.5162 17.1698 27.8046 17.8905 27.2983 18.3062C26.9085 18.6263 26.5276 18.8035 26.2572 18.8973C26.1756 18.925 26.105 18.9453 26.0469 18.9598C25.7947 19.0225 23.5035 19.0275 22.8983 18.8978H22.8955L22.8872 18.896C22.2994 18.7643 22.0247 17.6045 21.9432 17.1053L21.7642 16.0103C21.7642 16.0103 21.5524 15.5384 21.3491 15.0528L21.3402 15.0317L21.3314 15.0105L20.8984 13.9626C20.8984 13.9626 20.7332 14.5355 20.5361 15.0524L20.4668 15.2274L20.3965 15.3921C20.1446 15.9541 19.4345 16.9965 19.1659 17.3169C18.8974 17.6374 18.1393 18.5991 17.8859 18.7587C17.78 18.8254 17.6241 18.8695 17.4182 18.8973C17.1263 18.9344 16.7447 18.9394 16.2673 18.9278C15.9213 18.9193 15.6123 18.9303 15.3029 18.8973L15.1517 18.8766C14.8992 18.8363 14.6423 18.7597 14.3609 18.6127C13.6768 18.2553 12.5093 16.1578 12.1414 15.4802C12.0775 15.3626 11.9977 15.2158 11.9086 15.0524L11.9098 15.0516C11.4842 14.2698 10.8471 13.0926 10.7015 12.7861C10.5255 12.4151 10.4303 12.4468 10.4303 12.4468C10.4303 12.4468 10.3515 12.6074 10.1308 12.9602C9.83435 13.4339 10.0046 13.1849 9.57805 13.6816C9.19258 14.1304 8.79357 14.461 8.14855 15.0524L8.0429 15.149L7.93338 15.2504C7.15838 15.9706 6.66828 16.4509 6.52649 16.7237C6.38469 16.9965 6.52995 17.5605 6.57894 17.9146C6.62804 18.2689 6.5491 18.3812 6.35932 18.5572C6.16952 18.7332 5.29586 18.6163 4.94653 18.5986C4.59724 18.5807 4.15243 18.5142 3.47012 18.6234C2.78798 18.7327 2.48682 18.8438 2.01054 18.8415C1.53423 18.8392 1.48628 18.7585 1.18425 18.6604C0.882216 18.5624 0.787087 18.5941 0.628296 18.5773C0.469505 18.5605 0.421043 18.3671 0.389021 18.2865C0.356919 18.2059 0.499047 18.0296 0.499047 18.0296L0.462548 18.0205C0.41781 18.0095 0.340113 17.9912 0.276578 17.9802C0.181243 17.9637 0.0696901 17.8505 0.0216251 17.7376C-0.0264875 17.6248 0.020703 17.5124 0.020703 17.5124C0.020703 17.5124 0.290124 17.4171 0.63906 17.3223C0.987869 17.2275 1.24144 17.1 1.84337 16.7812C2.44535 16.4623 3.39611 16.0165 4.32968 15.281C4.42907 15.2026 4.522 15.1267 4.6092 15.0524L4.79966 14.8861C5.40255 14.342 5.70931 13.8926 6.06821 13.3587C6.41978 12.8355 7.5697 10.9822 8.02509 10.2463L8.07241 10.1699C8.16103 10.0266 8.21332 9.94194 8.21332 9.94194L8.33951 9.74941C8.33951 9.74941 8.13259 9.60366 8.05274 9.49067C7.97287 9.37762 8.0351 9.05614 8.0351 9.05614C8.0351 9.05614 7.90654 8.68547 7.90592 8.52453C7.90522 8.36361 8.25277 7.94693 8.39542 7.88323C8.53803 7.81965 8.57035 7.96455 8.66559 7.96507C8.7609 7.96549 9.26781 7.67842 9.41042 7.63092C9.55307 7.58327 9.776 7.7453 9.87146 7.794C9.96694 7.84275 10.1575 7.85981 10.3797 7.8448C10.6018 7.82984 11.9012 7.20861 11.9012 7.20861C11.9012 7.20861 12.5609 5.47415 12.655 5.18504C12.749 4.89586 12.7944 4.34901 12.7944 4.34901C12.7944 4.34901 12.7303 4.18786 12.73 4.10737C12.7296 4.02692 12.697 3.81755 12.697 3.81755C12.697 3.81755 12.6969 3.80148 12.5857 3.76867C12.4744 3.73604 12.3629 3.63895 12.3624 3.54239C12.362 3.44583 12.9627 2.80523 12.9627 2.80523C12.9627 2.80523 12.9295 2.45093 12.9448 2.30632C12.9601 2.16153 13.0704 1.95296 13.0704 1.95296C13.0704 1.95296 13.0062 1.79174 12.8944 1.63023C12.7826 1.46877 12.8934 1.38893 12.9246 1.24418C12.9558 1.09952 13.3988 0.747743 13.6045 0.571805C13.8102 0.395785 13.8575 0.315599 14.0475 0.203958C14.2376 0.0921874 14.6824 0.174906 14.6824 0.174906C14.6824 0.174906 14.7298 0.110721 14.9361 0.0956391C15.1424 0.0805729 15.3015 0.177906 15.3015 0.177906C15.3015 0.177906 15.523 -0.0302621 15.8883 0.00375772L15.7831 0.000367383ZM26.0935 10.0224L26.0738 10.0299C26.0397 10.0643 26.0532 10.1421 26.0927 10.2463L26.0925 10.2465C26.2185 10.5792 26.6106 11.1821 26.5879 11.5126C26.5579 11.947 25.4323 12.3275 25.4323 12.3275C25.4323 12.3275 25.4184 12.7941 25.3875 12.9871C25.3564 13.1799 25.2452 13.1633 25.2463 13.4369C25.2475 13.7104 25.5181 13.9049 25.6611 13.9378C25.8043 13.9706 26.9261 12.721 27.4322 12.2087C27.9381 11.6963 28.6332 10.8952 28.6332 10.8952C28.6332 10.8952 27.5842 10.6005 27.1868 10.4376C27.0543 10.3834 26.8935 10.3133 26.7353 10.2463L26.641 10.2064C26.3605 10.0889 26.11 9.99325 26.0738 10.0299L26.0935 10.0224ZM15.2749 9.20433C15.2749 9.20433 14.9739 9.3477 14.4196 9.66674C13.931 9.94804 13.4546 10.1917 13.3484 10.2463L13.3288 10.2603C13.3517 10.2971 13.663 10.7963 14.0932 11.3869C14.5402 12.0005 14.8441 12.549 15.26 13.2912C15.6757 14.0334 15.6588 13.7598 15.7698 13.7442C15.8809 13.7287 15.8614 12.8437 15.8439 12.4413C15.8263 12.039 15.9355 11.5568 15.9355 11.5568C15.9355 11.5568 15.6844 10.843 15.5529 10.2463L15.5238 10.1059C15.5063 10.0145 15.4925 9.92778 15.484 9.84908C15.4268 9.31886 15.3117 9.22341 15.282 9.20738L15.2749 9.20433ZM26.263 5.81512C26.1512 5.66975 26.0407 5.78192 26.0407 5.78192C26.0407 5.78192 25.8198 6.11862 25.7097 6.3595C25.5993 6.60027 25.4895 6.88934 25.4895 6.88934L25.5128 6.89954C25.6044 6.94081 25.9531 7.11004 26.349 7.45677C26.8111 7.86123 27.4468 8.0254 27.4468 8.0254C27.4468 8.0254 27.4415 8.01154 27.4319 7.98651L27.3909 7.88055C27.2864 7.61228 27.0578 7.03791 26.9018 6.73545C26.6936 6.33223 26.3747 5.96044 26.263 5.81512ZM13.8628 5.49668L13.7382 6.09128L13.7238 6.46142C13.7238 6.46142 14.5635 6.06329 14.5472 5.95054L14.4507 5.62828L14.1965 5.57876C14.0216 5.54567 13.8628 5.49668 13.8628 5.49668Z" fill="#333333"/>
</g>
<defs>
<clipPath id="clip0_217_2329">
<rect width="41" height="32" fill="white"/>
</clipPath>
</defs>
</svg>
