<svg width="52" height="32" viewBox="0 0 52 32" fill="none" xmlns="http://www.w3.org/2000/svg">
<path d="M0 29.8444H1.16536V27.5709C1.16536 27.166 1.16536 26.6665 1.37642 26.3738C1.58643 26.0557 1.9636 25.9523 2.17413 25.9523C3.15593 25.9523 3.15593 27.0896 3.15593 27.4846V29.8444H4.32076V27.2611C4.32076 26.89 4.32076 26.09 3.8743 25.5651C3.47174 25.0822 2.83114 24.9003 2.41112 24.9003C1.67424 24.9003 1.27115 25.2979 1.0786 25.4788V25.064H0V29.8444Z" fill="#282828"/>
<path fill-rule="evenodd" clip-rule="evenodd" d="M9.62089 27.9671C9.65422 27.8127 9.69072 27.6142 9.69072 27.3907C9.69072 26.1859 8.71738 24.8745 7.17486 24.8745C5.67571 24.8745 4.61562 26.1162 4.61562 27.4676C4.61562 28.8622 5.7376 30 7.18385 30C8.32329 30 9.25166 29.2 9.53255 28.3382H8.30477C8.0863 28.7343 7.7012 28.949 7.18385 28.949C6.35122 28.949 5.89524 28.2774 5.84234 27.9671H9.62089ZM5.80743 27.0456C6.02643 26.1583 6.75431 25.926 7.18385 25.926C7.76256 25.926 8.36666 26.2789 8.49838 27.0456H5.80743Z" fill="#282828"/>
<path d="M11.1863 29.8444H11.9036L12.8245 26.7444H12.8415L13.754 29.8444H14.4723L16.2513 25.064H15.0071L14.1121 27.9841H14.0952L13.3054 25.064H12.3775L11.5798 27.9841H11.5624L10.6774 25.064H9.43267L11.1863 29.8444Z" fill="#282828"/>
<path fill-rule="evenodd" clip-rule="evenodd" d="M18.5075 29.8444H19.5761V29.2674C19.8644 29.5866 20.2781 29.9998 21.216 29.9998C22.9944 29.9998 23.6345 28.3895 23.6345 27.4326C23.6345 26.168 22.6707 24.9003 21.1895 24.9003C20.6457 24.9003 20.0755 25.0994 19.6724 25.496V23.4714H18.5075V29.8444ZM19.602 27.3905C19.602 26.693 20.1543 25.9523 21.0483 25.9523C21.7851 25.9523 22.4691 26.5111 22.4691 27.4425C22.4691 28.3713 21.8291 28.9493 21.0663 28.9493C20.3828 28.9493 19.602 28.4498 19.602 27.3905Z" fill="#282828"/>
<path fill-rule="evenodd" clip-rule="evenodd" d="M29.0761 25.0642H28.0059V25.6687H27.9885C27.953 25.5991 27.3653 24.9 26.3761 24.9C25.0267 24.9 23.9391 25.9598 23.9391 27.425C23.9391 29.0176 25.0526 30 26.3063 30C26.9188 30 27.6383 29.6803 28.0059 29.252V29.8446H29.0761V25.0642ZM27.9721 27.4427C27.9721 28.3294 27.3574 28.949 26.5507 28.949C25.7186 28.949 25.1044 28.2858 25.1044 27.4765C25.1044 26.7618 25.5953 25.9525 26.5507 25.9525C27.2436 25.9525 27.9721 26.4515 27.9721 27.4427Z" fill="#282828"/>
<path d="M30.8611 23.4716H29.6957V29.8446H30.8611V23.4716Z" fill="#282828"/>
<path fill-rule="evenodd" clip-rule="evenodd" d="M36.3473 25.0642H35.2782V25.6687H35.2602C35.2248 25.5991 34.6371 24.9 33.6479 24.9C32.2968 24.9 31.2108 25.9598 31.2108 27.425C31.2108 29.0176 32.3244 30 33.5775 30C34.1906 30 34.909 29.6803 35.2782 29.252V29.8446H36.3473V25.0642ZM35.2428 27.4427C35.2428 28.3294 34.6297 28.949 33.823 28.949C32.9898 28.949 32.3767 28.2858 32.3767 27.4765C32.3767 26.7618 32.8676 25.9525 33.823 25.9525C34.5154 25.9525 35.2428 26.4515 35.2428 27.4427Z" fill="#282828"/>
<path d="M36.9677 29.8444H38.1326V27.5709C38.1326 27.166 38.1326 26.6665 38.3436 26.3738C38.5536 26.0557 38.9319 25.9523 39.1414 25.9523C40.1226 25.9523 40.1226 27.0896 40.1226 27.4846V29.8444H41.289V27.2611C41.289 26.89 41.289 26.09 40.841 25.5651C40.4379 25.0822 39.7989 24.9003 39.3778 24.9003C38.6409 24.9003 38.2389 25.2979 38.0453 25.4788V25.064H36.9677V29.8444Z" fill="#282828"/>
<path d="M45.4305 28.2859C45.1232 28.7683 44.7386 28.9492 44.353 28.9492C43.4754 28.9492 42.8887 28.2688 42.8887 27.4507C42.8887 26.4688 43.5902 25.9521 44.2996 25.9521C45.0184 25.9521 45.2909 26.4085 45.4305 26.6492H46.7461C46.2462 25.1761 44.9126 24.9001 44.2996 24.9001C42.9586 24.9001 41.7234 25.9698 41.7234 27.4325C41.7234 29.0178 43.0628 29.9996 44.3091 29.9996C45.4485 29.9996 46.3504 29.3535 46.7461 28.2859H45.4305Z" fill="#282828"/>
<path fill-rule="evenodd" clip-rule="evenodd" d="M51.9307 27.9671C51.9651 27.8127 52 27.6142 52 27.3907C52 26.1859 51.0277 24.8745 49.4852 24.8745C47.9861 24.8745 46.9254 26.1162 46.9254 27.4676C46.9254 28.8622 48.0474 30 49.4937 30C50.6326 30 51.5625 29.2 51.8424 28.3382H50.6156C50.3961 28.7343 50.0115 28.949 49.4937 28.949C48.6605 28.949 48.2051 28.2774 48.1537 27.9671H51.9307ZM48.1178 27.0456C48.3373 26.1583 49.0641 25.926 49.4937 25.926C50.0729 25.926 50.677 26.2789 50.8082 27.0456H48.1178Z" fill="#282828"/>
<path fill-rule="evenodd" clip-rule="evenodd" d="M19.8386 14L18.2808 16.6436L9.65776 16.167L10.5211 14.6944L19.8386 14ZM26.0722 5.57656L26.8535 8.49405L14.6181 7.704L15.4808 6.232L26.0722 5.57656ZM17.9607 2.00052L25.1227 2.00572L25.6633 4.00061L17.099 3.47252L17.9607 2.00052ZM17.3312 18.2876L16.0876 20.3886L7.17787 20.3979L8.04065 18.9264L17.3312 18.2876ZM32.9739 12.6195L30.8172 16.2927H32.8713C33.8229 16.2927 35.5284 15.826 36.0531 14.4943C36.5393 13.2567 35.6458 12.6179 35.0221 12.6179L32.9739 12.6195ZM35.0306 9.10583L36.8223 9.09491C38.0146 9.08867 39.2582 8.55279 39.7132 7.46542C40.1327 6.45654 39.5688 5.59735 38.8213 5.60047L37.0883 5.59839L35.0306 9.10583ZM26.9207 8.49405L28.7298 5.41024L34.8529 5.02404L35.0666 4.64981L29.4027 4.2605L30.7273 2.00052L41.2308 2C44.4608 2 46.8503 3.13467 45.9214 6.47161C45.6421 7.48257 44.3291 10.0274 40.4786 11.0934C41.2959 11.1891 43.3314 12.0753 42.9807 14.3727C42.3576 18.4467 36.9894 20.386 34.0033 20.387L21.6028 20.3927L20.9918 18.0355L27.4867 17.5854L27.7073 17.2122L20.6628 16.7907L19.9037 13.9964L29.9275 13.4215L30.1454 13.0514L12.1371 11.935L12.9999 10.4635L32.3841 9.22693L32.6036 8.85634L26.9207 8.49405Z" fill="#282828"/>
</svg>
