<svg width="75" height="12" viewBox="0 0 75 12" fill="none" xmlns="http://www.w3.org/2000/svg">
<path d="M12.6843 2.47006C12.2564 2.09881 10.2462 0.572558 7.09996 0.539558C5.28146 0.520858 3.12923 0.849208 0.785897 2.40846C0.641056 2.50526 0.624535 2.90456 0.673549 3.05746C0.729723 3.23401 0.821143 3.16746 0.958825 3.08441C1.53323 2.73461 2.687 2.19341 3.33961 2.01576C7.16219 0.975708 10.2837 2.24181 11.3356 3.16086C11.6192 3.41056 11.6974 3.63166 11.519 4.12446C11.3488 4.59526 10.8631 5.60066 9.89268 6.94596C8.79674 8.46506 7.09114 10.2476 6.68306 10.2526C6.43358 10.2559 5.27651 9.28071 4.42343 8.34516C3.52465 7.35901 2.88581 6.45976 2.94529 6.20126C2.991 6.00326 3.79671 5.29266 4.08364 5.17991C4.12769 5.16121 4.18056 5.15956 4.20755 5.19806C4.75277 5.96806 6.08001 7.65766 6.68856 7.59606C7.3241 7.53116 9.22685 5.31136 9.69222 4.27241C9.74674 4.14921 9.39648 3.59371 9.28633 3.77191C8.57424 4.92306 7.50914 6.08686 6.85984 6.48781C6.81104 6.51777 6.75343 6.53013 6.69661 6.52282C6.63979 6.51552 6.58719 6.48899 6.54758 6.44766C5.43291 5.28166 4.86236 3.71526 4.37772 3.70866C3.77082 3.70151 2.29598 4.93681 1.80198 5.56381C1.44181 6.02031 1.52111 6.23151 1.85265 6.72266C2.65451 7.91396 3.95256 9.29226 5.18288 10.2075C5.90488 10.7454 6.42862 11.0083 6.72051 11.0083C7.27949 11.0083 9.19767 9.47376 10.3757 8.12076C11.7822 6.50266 12.4976 5.19146 12.8291 4.52926C13.3353 3.51176 13.4047 3.09596 12.6843 2.47006ZM22.2801 8.67791H21.0333L18.1376 4.86476V8.67626H16.8445V2.83251H18.1734L20.9865 6.50431V2.83251H22.2801V8.67791ZM26.6507 8.79561C25.7343 8.79561 24.977 8.51071 24.3789 7.94146C23.7814 7.37276 23.4835 6.64896 23.4835 5.77336C23.4835 4.89776 23.7809 4.17451 24.3789 3.60526C24.977 3.03601 25.7343 2.75166 26.6507 2.75166C27.5731 2.75166 28.3337 3.03436 28.9318 3.60141C29.5299 4.16901 29.8278 4.89226 29.8278 5.77556C29.8278 6.65831 29.5277 7.38156 28.9318 7.94916C28.3337 8.51291 27.5731 8.79561 26.6507 8.79561ZM25.3163 7.14836C25.6539 7.51026 26.0983 7.69231 26.6507 7.69231C27.2036 7.69231 27.6497 7.51026 27.9889 7.14836C28.3282 6.78701 28.4989 6.32776 28.4989 5.77336C28.4989 5.21896 28.3282 4.76026 27.9889 4.39836C27.6497 4.03646 27.2036 3.85496 26.6507 3.85496C26.0978 3.85496 25.6539 4.03646 25.3163 4.39836C24.9787 4.76026 24.8102 5.21896 24.8102 5.77336C24.8124 6.32776 24.9803 6.78701 25.3163 7.14836ZM35.9475 8.67791H34.4627L33.2709 6.60166H32.3242V8.67791H31.0311V2.83251H33.8729C34.4963 2.83251 34.9931 3.00851 35.3604 3.35721C35.7277 3.70811 35.9111 4.16131 35.9111 4.71571C35.9111 5.19531 35.7822 5.58471 35.5256 5.88171C35.2668 6.17871 34.954 6.37011 34.5828 6.45096L35.9475 8.67791ZM33.6796 5.50551C33.9456 5.50551 34.1648 5.43401 34.3349 5.29101C34.5057 5.14746 34.5905 4.95661 34.5905 4.71571C34.5905 4.47756 34.5062 4.28451 34.3355 4.14151C34.1648 3.99851 33.9472 3.92701 33.6796 3.92701H32.322V5.50386H33.679L33.6796 5.50551ZM39.8378 8.67791H38.5353V3.92811H36.6761V2.83251H41.6899V3.92811H39.8378V8.67791ZM48.4417 8.67791H47.1387V6.22326H44.2711V8.67626H42.9786V2.83251H44.2717V5.12931H47.1393V2.83251H48.4423L48.4417 8.67791ZM53.8433 8.67791H50.3214V2.83251H51.6145V7.58176H53.8433V8.67791ZM61.0577 8.67791H59.5824L59.2095 7.68791H56.6062L56.224 8.67791H54.7486L57.0969 2.83251H58.7183L61.0577 8.67791ZM58.8554 6.59231L57.9087 4.07716L56.962 6.59231H58.8554ZM67.5701 8.67791H66.3221L63.4264 4.86641V8.67791H62.1328V2.83251H63.4617L66.2753 6.50431V2.83251H67.5684V8.67791H67.5701ZM71.6752 8.67791H69.2817V2.83251H71.6752C72.6274 2.83251 73.4033 3.10036 74.0009 3.63826C74.599 4.17616 74.8969 4.88291 74.8969 5.75851C74.8969 6.63466 74.599 7.34141 74.0047 7.87601C73.4105 8.40951 72.6345 8.67791 71.6752 8.67791ZM71.6752 7.58176C72.2578 7.58176 72.6665 7.34691 73.0641 7.05706C73.5438 6.70781 73.6391 6.27496 73.5774 5.76071C73.5135 5.22611 73.4105 4.78391 73.0768 4.44236C72.7436 4.10136 72.2766 3.93031 71.6752 3.93031H70.5732V7.58396H71.6752V7.58176Z" fill="black"/>
</svg>
