<svg width="76" height="32" viewBox="0 0 76 32" fill="none" xmlns="http://www.w3.org/2000/svg">
<g clip-path="url(#clip0_217_2331)">
<path fill-rule="evenodd" clip-rule="evenodd" d="M9.16722 7C4.11046 7 0 11.1105 0 16.1672C0 19.5384 1.80387 22.466 4.52447 24.0629C2.72059 22.673 1.53773 20.4847 1.53773 18.0302C1.53773 13.8311 4.96804 10.4007 9.16722 10.4007C13.396 10.4007 16.7967 13.8015 16.7967 18.0302C16.7967 20.5143 15.6138 22.7321 13.7804 24.122C16.5306 22.5251 18.364 19.568 18.364 16.1672C18.364 11.1105 14.2535 7 9.16722 7ZM9.16747 13.3285C5.82587 13.3285 3.13485 16.0195 3.13485 19.3611C3.13485 22.0817 4.93872 24.3883 7.45231 25.1276C5.76673 24.4474 4.58386 22.7914 4.58386 20.8693C4.58386 18.3261 6.65388 16.2857 9.16747 16.2857C11.7106 16.2857 13.7511 18.3261 13.7511 20.8693C13.7511 22.7914 12.5682 24.4179 10.9122 25.098C13.3666 24.3587 15.1705 22.0521 15.1705 19.3315C15.2001 16.0195 12.4795 13.3285 9.16747 13.3285ZM20.79 15.2796C20.79 13.4462 21.9433 13.0913 23.5698 13.0913C25.1962 13.0913 26.3495 13.4462 26.3495 15.2796V16.8469C26.3495 18.7099 25.1962 19.0648 23.5698 19.0648C21.9433 19.0648 20.79 18.7099 20.79 16.8469V15.2796ZM23.5993 17.6749C24.4274 17.6749 24.7231 17.5862 24.7231 16.6991V15.4571C24.7231 14.5699 24.4274 14.4812 23.5993 14.4812C22.7713 14.4812 22.4756 14.5699 22.4756 15.4571V16.6991C22.4756 17.5862 22.7713 17.6749 23.5993 17.6749ZM29.6024 17.5567C30.2825 17.5567 30.5191 17.4975 30.5191 16.7878V13.2688H32.116V16.9061C32.116 18.5029 31.3767 18.9465 29.6024 18.9465C27.2071 18.9465 26.9409 18.3255 26.9409 16.9061V13.2688H28.5378V16.8765C28.5378 17.5567 28.9222 17.5567 29.6024 17.5567ZM40.1003 17.5271H40.1299L41.4606 13.2392H43.1167L41.3719 18.8874H39.7751C39.1245 18.8874 38.7105 18.4142 38.533 17.7932L37.5868 14.6586H35.842V18.8874H34.2451V14.6586H32.7074V13.2688H38.7992L40.1003 17.5271ZM43.5011 17.8819V14.2742C43.5011 13.6828 43.9447 13.2688 44.5361 13.2392H47.8777V14.5403H45.098V15.5162H47.1975V16.6104H45.098V17.5862H47.8777V18.8874H44.5361C43.9742 18.8874 43.5011 18.4438 43.5011 17.8819ZM52.9936 17.4975H53.0527L52.9936 13.2688H54.5905V18.9169H52.6979C52.0473 18.9169 51.6924 18.4142 51.4559 17.7932L50.1547 14.6882H50.0956L50.1843 18.9169H48.5874V13.2688H50.4504C51.101 13.2688 51.4559 13.7715 51.6924 14.3925L52.9936 17.4975ZM56.6013 14.6291H55.0636L55.034 13.2392H59.7951V14.6291H58.1982V18.8578H56.6013V14.6291ZM62.9888 17.5567C63.669 17.5567 63.9055 17.4975 63.9055 16.7878V13.2688H65.5024V16.9061C65.5024 18.5029 64.7631 18.9465 62.9888 18.9465C60.5935 18.9465 60.3274 18.3255 60.3274 16.9061V13.2688H61.9242V16.8765C61.9242 17.5567 62.3087 17.5567 62.9888 17.5567ZM69.1693 13.2688C70.3522 13.2688 71.0619 13.5349 71.0619 14.9248C71.0619 15.7824 70.8549 16.0781 70.0269 16.1668V16.1964C70.707 16.2259 71.0619 16.6104 71.0619 17.2905V18.9169H69.465V17.4088C69.465 16.9652 69.2876 16.8469 68.7849 16.8469H67.7203V18.9169H66.1234V13.2688H69.1693ZM67.7499 15.8119H68.7849C69.3172 15.8119 69.465 15.8119 69.4946 15.1909C69.4946 14.6586 69.4354 14.5403 68.9919 14.5403H67.7499V15.8119ZM76.0004 13.2688V14.5403H73.2206V15.5162H75.3202V16.6104H73.2206V17.5862H76.0004V18.8874H72.6588C72.0969 18.8874 71.6237 18.4438 71.6237 17.8819V14.2742C71.6237 13.7123 72.0969 13.2688 72.6588 13.2688H76.0004Z" fill="#333333"/>
</g>
<defs>
<clipPath id="clip0_217_2331">
<rect width="76" height="32" fill="white"/>
</clipPath>
</defs>
</svg>
