<svg width="52" height="32" viewBox="0 0 52 32" fill="none" xmlns="http://www.w3.org/2000/svg">
<g clip-path="url(#clip0_217_2300)">
<path fill-rule="evenodd" clip-rule="evenodd" d="M12.2413 16.4914C12.4536 16.4935 12.4536 16.517 12.4536 16.7751V26.5214C12.4536 27.4526 13.5354 27.4778 13.5354 26.5214L13.5433 16.7751C13.5433 16.4912 13.5433 16.4912 13.8525 16.4912H16.6482C16.9062 16.5834 16.9646 16.4912 16.9646 16.7751V27.1802C16.9977 28.5769 16.6482 28.8609 15.5916 28.8609H10.1812C9.24927 28.8609 8.90765 28.6108 8.90765 27.0886L8.90785 16.7099C8.91002 16.4912 8.93612 16.4912 9.24927 16.4912L12.2413 16.4914ZM29.15 16.4914C30.1071 16.4914 30.4487 16.7754 30.4487 17.8313L30.4485 28.6726C30.4461 28.8604 30.4206 28.8604 30.1395 28.8604H27.3683C27.0274 28.8604 27.0274 28.8604 27.0274 28.6104V18.5232C27.0274 17.6417 25.9456 17.69 25.9456 18.5232L25.9454 28.6726C25.943 28.8604 25.9168 28.8604 25.6285 28.8604H22.9323C22.5244 28.8604 22.5244 28.8604 22.5244 28.6104V18.5232C22.5244 17.5495 21.4433 17.6417 21.4433 18.5232V28.6104C21.4433 28.8604 21.4433 28.8604 21.0678 28.8604H18.3629C18.022 28.8604 18.022 28.8604 18.022 28.6104V17.8983C18.022 16.7754 18.3629 16.4914 19.5125 16.4914H29.15ZM6.06996 16.4912C7.4177 16.4912 7.75068 16.7752 7.75068 18.0811V23.9586C7.75068 25.4894 7.4177 25.8058 6.06996 25.8635H3.53158C3.21518 25.8635 3.21518 25.9146 3.21518 26.239L3.21491 28.6784C3.21242 28.8602 3.18758 28.8602 2.93915 28.8602H0.109596C-0.139053 28.8602 -0.214728 28.6692 -0.222656 28.6029V28.5936C-0.214728 28.5864 -0.214728 28.577 -0.20608 28.5864L-0.205883 16.7406C-0.203517 16.4912 -0.17276 16.4912 0.227073 16.4912H6.06996ZM38.5042 16.4912C39.4036 16.4912 39.6862 16.7752 39.6862 17.8318L39.6859 28.6784C39.6834 28.8602 39.6587 28.8602 39.4116 28.8602L36.5223 28.86C36.2656 28.8582 36.2656 28.8376 36.2656 28.6109V26.239C36.2656 25.8231 35.991 25.622 35.7157 25.6314C35.4591 25.6401 35.2091 25.8296 35.1752 26.2058L35.1749 28.6729C35.1724 28.8602 35.1443 28.8602 34.835 28.8602L32.0433 28.8601C31.7546 28.8585 31.7546 28.8395 31.7546 28.6109V17.8404C31.7546 16.7752 32.1294 16.4912 33.0368 16.4912H38.5042ZM28.9919 3.33331C29.1742 3.47457 29.224 3.42629 29.4827 3.99854C29.5072 4.05836 29.5829 4.14052 29.6658 4.19169C31.322 4.39061 32.695 5.06448 34.6676 6.62268C34.6676 6.62268 35.7934 7.49968 37.0342 8.46021L37.4287 8.76538C38.8144 9.83674 40.2106 10.9081 40.2524 10.9081C41.593 11.7564 43.9144 12.1809 45.2218 11.1164C46.5205 9.72538 47.3191 8.4353 47.6607 7.03782C48.0427 6.06268 49.6168 4.31493 50.491 3.9416C51.1634 3.61656 51.722 3.49187 51.98 3.90845C52.2366 4.32358 52.3216 4.57367 51.7631 5.48899C50.8643 6.0807 50.0737 6.28827 49.2413 6.95493C48.2596 7.73692 47.5678 8.82737 47.1605 10.2162C46.8939 10.9996 46.295 11.8068 45.1966 12.6306C45.0214 12.7308 44.896 12.8728 44.971 13.063C45.6283 14.2443 45.9699 15.4364 45.9959 16.9917C46.0616 17.2322 46.0705 17.452 46.0672 17.6665L46.0599 17.9407C46.0436 18.5793 46.0909 19.2306 47.4106 20.3135C47.5678 21.3441 48.0341 21.7866 48.0759 22.3265C47.5678 23.5423 48.184 24.0821 47.7429 24.4411C46.0708 24.0821 46.0031 22.7092 46.1616 21.0544C44.2553 19.9466 42.9566 17.8313 41.9339 15.2108C41.5173 14.129 40.6769 13.6713 39.5778 13.3967C36.2741 13.3542 34.127 12.1982 32.6287 10.4158C32.3216 10.1917 32.1371 9.92502 31.838 10.3005C30.8485 11.1402 29.3573 10.725 27.4935 9.91782C27.1858 9.81836 26.8276 9.62665 26.7605 10.0504C26.295 10.9751 25.4049 10.2912 25.3378 9.80106C25.2535 8.54412 26.153 8.36106 27.193 8.27025C27.6687 8.27025 28.1674 8.37764 28.6416 8.37764L28.7108 8.34245C28.7381 8.32756 28.7597 8.31018 28.7995 8.26088C28.8247 7.7189 28.9162 7.36142 27.851 7.28719C27.2355 7.37007 27.0186 7.37872 26.486 6.88791C26.3865 6.8634 26.3029 6.84539 26.202 6.8043C26.1451 6.74593 26.1371 6.71277 26.0953 6.62917C26.0456 6.57079 25.9115 6.5052 25.9115 6.24574C25.7616 6.13836 25.7955 5.93079 25.8784 5.69656C25.9115 5.69656 26.1285 5.37223 26.3115 5.17259C26.4031 5.06448 26.4196 4.88214 26.553 4.76466C26.9025 4.47493 27.2845 4.14052 27.2845 4.14052C27.5101 3.80827 27.6427 3.47457 27.8092 3.44214C27.9512 3.44935 28.0924 3.56683 28.2258 3.62448C28.2842 3.65836 28.3007 3.65836 28.4002 3.65836C28.6171 3.59205 28.7757 3.4998 28.9919 3.33331ZM3.7723 17.8404C3.48978 17.8404 3.21518 18.0328 3.21518 18.3982V23.7662C3.21518 24.1582 3.48978 24.35 3.7723 24.35C4.03896 24.35 4.31356 24.1669 4.33014 23.7993V18.4228C4.33014 18.0328 4.05554 17.8404 3.7723 17.8404ZM35.7157 17.9824C35.4505 17.9824 35.1752 18.1568 35.1752 18.5237V23.7993C35.1752 24.1244 35.4505 24.2909 35.7157 24.2909C35.991 24.2988 36.2656 24.1337 36.2656 23.7993V18.5237C36.2656 18.1741 35.991 17.991 35.7157 17.9824Z" fill="#333333"/>
</g>
<defs>
<clipPath id="clip0_217_2300">
<rect width="52" height="32" fill="white"/>
</clipPath>
</defs>
</svg>
