<svg width="76" height="7" viewBox="0 0 76 7" fill="none" xmlns="http://www.w3.org/2000/svg">
<path d="M34.4398 4.35577C34.6717 4.58829 34.9864 4.71919 35.3147 4.71968L40.7331 4.71784L39.9452 5.84386C39.8561 5.97249 39.7372 6.07758 39.5988 6.15012C39.4603 6.22266 39.3062 6.26048 39.1498 6.26035H35.0994C34.7293 6.26059 34.3627 6.18783 34.0208 6.04624C33.6787 5.90466 33.3681 5.69699 33.1063 5.43515C32.8446 5.17329 32.6368 4.86237 32.4951 4.52015C32.3534 4.17795 32.2806 3.81114 32.2806 3.44071V2.83255C32.2789 2.46103 32.3505 2.09283 32.4915 1.74913C32.6324 1.40542 32.8398 1.09298 33.1017 0.829758C33.3637 0.566537 33.6751 0.357728 34.0179 0.21533C34.3607 0.0729325 34.7282 -0.000246112 35.0994 6.21851e-07H40.5804L39.7943 1.12601C39.7046 1.25457 39.5854 1.35957 39.4467 1.43208C39.3079 1.5046 39.1535 1.54248 38.9971 1.54251H35.3147C35.1516 1.54251 34.9903 1.57479 34.8395 1.63748C34.689 1.70018 34.5523 1.79206 34.4373 1.90785C34.3223 2.02362 34.2314 2.16102 34.1695 2.31212C34.1079 2.46324 34.0766 2.62507 34.0775 2.78831V3.47941C34.0775 3.80803 34.2078 4.12322 34.4398 4.35577Z" fill="black"/>
<path d="M26.8513 0.00543761C26.5828 0.00547748 26.3183 0.0703241 26.0802 0.194479C25.8421 0.318635 25.6373 0.498437 25.4835 0.718642L21.6078 6.26026H23.6479L26.9195 1.44106L29.0569 4.71589H25.1796L25.94 5.84561C26.0263 5.97282 26.1424 6.07696 26.278 6.14893C26.4139 6.22088 26.5651 6.25847 26.7188 6.25842H32.1078L27.8934 0.00543761H26.8513Z" fill="black"/>
<path d="M54.1501 0.00543761H52.3549V6.25842H54.1501V0.00543761Z" fill="black"/>
<path fill-rule="evenodd" clip-rule="evenodd" d="M58.8402 0.00544726H62.3382C62.7083 0.00641405 63.0743 0.0803043 63.4156 0.222899C63.7572 0.365492 64.0671 0.573999 64.328 0.836512C64.5889 1.09902 64.7956 1.4104 64.9362 1.75287C65.077 2.09533 65.1487 2.46219 65.1478 2.83245V3.44062C65.1478 4.18844 64.851 4.90562 64.3228 5.43442C63.7945 5.9632 63.078 6.26026 62.3308 6.26026H58.8328C58.0857 6.26026 57.3691 5.9632 56.8408 5.43442C56.3127 4.90562 56.0158 4.18844 56.0158 3.44062V2.83245C56.0149 2.46094 56.0872 2.09288 56.2288 1.74946C56.3705 1.40603 56.5784 1.094 56.8408 0.831293C57.1034 0.568587 57.4151 0.360387 57.7581 0.218661C58.1013 0.0769338 58.469 0.0044747 58.8402 0.00544726ZM63.2657 3.95369C63.328 3.8033 63.3601 3.6421 63.3601 3.47932L63.3545 2.78086C63.3545 2.61807 63.3225 2.45689 63.2601 2.30651C63.1979 2.15613 63.1067 2.01953 62.9915 1.9045C62.8765 1.78948 62.7399 1.6983 62.5896 1.63617C62.4392 1.57404 62.278 1.54219 62.1155 1.54243H59.0444C58.8814 1.54243 58.72 1.57463 58.5695 1.63719C58.419 1.69975 58.282 1.79144 58.167 1.907C58.0518 2.02257 57.9607 2.15972 57.8987 2.31063C57.8365 2.46153 57.8049 2.62321 57.8054 2.78639V3.47932C57.8058 3.80794 57.9366 4.12295 58.1689 4.35514C58.4013 4.58734 58.7161 4.71775 59.0444 4.71775H62.1211C62.2835 4.71799 62.4447 4.68614 62.5951 4.62401C62.7454 4.56189 62.882 4.47071 62.997 4.35568C63.1122 4.24066 63.2035 4.10405 63.2657 3.95369Z" fill="black"/>
<path d="M42.5773 0.00543761C42.4207 0.00546878 42.2665 0.0433532 42.1277 0.115868C41.9888 0.188383 41.8695 0.293382 41.7801 0.421934L41.0012 1.54242H45.2965V6.26026H47.0769V1.54242H50.6285V0.00543761H42.5773Z" fill="black"/>
<path d="M74.2053 0.00543761V4.82095L70.1254 0.598852C69.9426 0.411994 69.7247 0.263313 69.4842 0.161444C69.2437 0.0595745 68.9854 0.00654622 68.7242 0.00543761H67.023V6.26026H68.8218V1.44106L72.9018 5.67053C73.0842 5.85729 73.3023 6.00569 73.5428 6.10695C73.7835 6.20822 74.0418 6.26035 74.3028 6.26026H76.0004V0.00543761H74.2053Z" fill="black"/>
<path d="M8.8632 0.00951585C10.6675 0.00951585 11.5568 0.787222 11.5568 1.88191C11.5568 3.35254 9.86663 4.27399 8.35689 4.39009L9.62175 6.26249H8.03101C7.87165 6.26245 7.71479 6.22267 7.57465 6.14672C7.4345 6.0708 7.31545 5.9611 7.22828 5.82756L6.30771 4.43065H3.28826L2.04181 6.26433H0L1.71962 3.80406C1.86202 3.59377 2.05426 3.4221 2.27917 3.3044C2.50408 3.18668 2.75462 3.12662 3.00841 3.12956H7.89293C8.98287 3.12956 9.47446 2.65409 9.47446 2.1307C9.47446 1.77317 9.24247 1.54281 8.48208 1.54281H4.28246C4.12993 1.54392 3.97942 1.50773 3.84402 1.4374C3.70862 1.36706 3.59243 1.26471 3.50552 1.13922L2.74513 0.00951585H8.8632Z" fill="black"/>
<path d="M16.3782 1.44106H21.7635C21.9199 1.44124 22.0741 1.40363 22.2129 1.33145C22.3516 1.25926 22.4711 1.15462 22.5607 1.02641L23.275 0.00543761H15.4374L11.0629 6.2621H19.0847C19.2411 6.26228 19.3952 6.22467 19.5341 6.15248C19.6729 6.08031 19.7921 5.97565 19.8819 5.84745L20.6018 4.82831H14.0805L16.3782 1.44106Z" fill="black"/>
<path d="M16.8831 3.96753C16.7698 3.90715 16.673 3.82 16.6011 3.71364L15.9622 2.7664H20.6515L19.9905 3.7118C19.9153 3.81927 19.8152 3.90701 19.6989 3.96762C19.5826 4.02826 19.4534 4.05996 19.3222 4.06011H17.251C17.1227 4.05969 16.9964 4.02793 16.8831 3.96753Z" fill="black"/>
</svg>
