<svg width="54" height="32" viewBox="0 0 54 32" fill="none" xmlns="http://www.w3.org/2000/svg">
<path d="M0 2C1.87232 2 3.74301 2 5.6137 2C6.57437 2.00844 7.5432 2.3646 8.24737 3.04992C8.83063 3.60863 9.20313 4.41886 9.17699 5.24765C9.19987 6.00048 8.97114 6.76851 8.50061 7.34917C8.12647 7.82517 7.60039 8.15264 7.0449 8.3552C7.62489 8.52568 8.18528 8.85821 8.52838 9.38486C8.79959 9.77984 8.90088 10.271 8.90578 10.7487C8.90578 11.6299 8.90578 12.5127 8.90578 13.3938C8.11503 13.3938 7.32428 13.3938 6.53352 13.3938C6.53352 12.6865 6.53352 11.9776 6.53352 11.2703C6.51719 10.7639 6.40609 10.2255 6.05156 9.85411C5.67742 9.46757 5.1252 9.34941 4.61382 9.32578C4.07794 9.31903 3.54369 9.32578 3.00781 9.32409C3.00944 8.66578 3.00127 8.00916 3.01271 7.35086C3.78386 7.35761 4.555 7.35086 5.32779 7.35423C5.86694 7.35423 6.38648 7.00989 6.61521 6.50518C6.9289 5.84013 6.83414 4.92862 6.26558 4.43742C5.94373 4.16566 5.51894 4.06101 5.11049 4.0627C4.15636 4.06438 3.20386 4.0627 2.25136 4.0627C2.25136 6.49168 2.25136 8.91898 2.25136 11.348H0C0 8.23366 0 5.11599 0 2Z" fill="#333333"/>
<path d="M28.4263 2C29.1991 2 29.9719 2 30.7463 2C30.7463 4.4543 30.7463 6.90692 30.7463 9.36123C31.3393 9.36123 31.934 9.36123 32.5287 9.36123C33.2885 9.37304 33.9714 8.70123 34.0449 7.92983C34.1707 7.11623 33.6283 6.22667 32.8245 6.0815C32.3997 6.01905 31.9667 6.06631 31.5403 6.05281C31.5403 5.38944 31.5403 4.72775 31.5403 4.06438C32.0386 4.0627 32.5369 4.06438 33.0336 4.06438C34.0776 4.04244 35.0987 4.60622 35.7097 5.47215C36.324 6.33132 36.5299 7.46901 36.3289 8.5088C36.0447 9.80854 34.9664 10.7977 33.7606 11.1758C33.1545 11.38 32.5091 11.3716 31.8785 11.3682H28.4279C28.4279 8.24548 28.4279 5.12274 28.4279 2H28.4263Z" fill="#333333"/>
<path d="M46.6512 2C47.4305 2 48.2099 2 48.9908 2C48.9908 3.4871 48.9908 4.97251 48.9908 6.45961C49.4793 6.44104 49.9743 6.5035 50.4579 6.41235C50.9105 6.31613 51.2781 5.95491 51.435 5.51097C51.6228 5.04678 51.6081 4.53364 51.6245 4.04075C52.3907 4.04919 53.1553 4.04075 53.9216 4.04413C53.902 4.81384 53.9085 5.63588 53.5197 6.32288C53.1864 6.92211 52.5574 7.25295 51.9431 7.45889C52.6701 7.66988 53.3792 8.12395 53.7043 8.85484C54.0833 9.62961 53.9526 10.5158 53.9755 11.3497H51.6555C51.6114 10.6593 51.7928 9.90306 51.4333 9.27514C51.1556 8.75524 50.5756 8.49361 50.0217 8.45647C49.6786 8.44128 49.3355 8.45647 48.9924 8.44972C48.9924 9.41693 48.9924 10.3824 48.9924 11.348C48.2131 11.348 47.4322 11.348 46.6529 11.348C46.6529 8.23198 46.6529 5.11599 46.6529 2H46.6512Z" fill="#333333"/>
<path d="M40.4134 4.03906C41.5603 3.83144 42.7955 3.93441 43.8346 4.50663C44.6269 4.94213 45.2478 5.7034 45.5027 6.59633C45.8164 7.69858 45.6889 8.96286 45.0403 9.91488C44.493 10.7319 43.6107 11.2619 42.6827 11.4762C41.6012 11.7244 40.433 11.645 39.4233 11.1555C38.4545 10.6913 37.6637 9.79503 37.4007 8.71473C37.1295 7.60236 37.3337 6.34483 38.0313 5.43839C38.6162 4.6788 39.4985 4.21124 40.4134 4.03906ZM40.9852 5.89245C40.1504 6.10851 39.5295 6.97613 39.59 7.86569C39.6243 8.49867 39.9772 9.10803 40.5082 9.42874C41.0343 9.76802 41.7253 9.8001 42.2825 9.51652C43.1402 9.10803 43.5879 7.98384 43.2284 7.07572C42.9131 6.16759 41.8838 5.62069 40.9869 5.89245H40.9852Z" fill="#333333"/>
<path d="M10.502 5.76079C11.1114 4.74801 12.224 4.08464 13.3791 4.06438C14.8806 4.05932 16.3804 4.06438 17.8818 4.0627C17.8704 4.77502 17.9047 5.49072 17.8655 6.19797C17.377 7.00145 16.877 7.79648 16.3836 8.59826C15.6386 8.59658 14.8936 8.60164 14.1486 8.59489C14.642 7.74753 15.1371 6.90186 15.6239 6.05112C15.0227 6.05112 14.4215 6.05112 13.8186 6.05112C13.2745 6.03255 12.7468 6.35833 12.4658 6.83265C12.1293 7.38461 12.1489 8.1442 12.523 8.67253C12.8252 9.1266 13.3546 9.38992 13.8839 9.37979C15.2155 9.37979 16.5487 9.37979 17.8802 9.37979C17.8802 10.0415 17.8802 10.7048 17.8802 11.3665C16.5977 11.3665 15.3135 11.3665 14.031 11.3665C13.5049 11.3665 12.9658 11.3733 12.4576 11.2079C11.4529 10.904 10.6082 10.1006 10.221 9.09621C9.79457 8.02267 9.8975 6.7415 10.502 5.76079Z" fill="#333333"/>
<path d="M20.4028 4.76827C20.9893 4.31252 21.7212 4.07114 22.4532 4.0627C23.9285 4.0627 25.4038 4.0627 26.8775 4.0627C26.8775 4.77333 26.8758 5.48396 26.8791 6.1946C26.3841 6.99469 25.889 7.79817 25.3924 8.59826C24.649 8.59826 23.9056 8.59826 23.1606 8.59826C23.6458 7.74584 24.1458 6.90186 24.6343 6.05112C23.9775 6.05112 23.3207 6.04606 22.6639 6.05281C21.7915 6.12539 21.1037 7.04871 21.2491 7.93827C21.3455 8.70967 22.0169 9.35279 22.7718 9.37304C24.1458 9.38317 25.5214 9.37473 26.8938 9.37642C26.8954 10.0381 26.8938 10.7015 26.8938 11.3648C25.4152 11.3615 23.9383 11.3733 22.4597 11.3581C21.5497 11.3581 20.6429 10.9766 20.0074 10.3014C19.2509 9.54184 18.8703 8.41259 18.9863 7.33229C19.0794 6.3212 19.6055 5.36412 20.3995 4.76489L20.4028 4.76827Z" fill="#333333"/>
<path d="M38.7862 16.3325C43.846 15.7552 48.9222 15.3434 54 15.0058C51.2536 15.7282 48.499 16.4237 45.7788 17.2525C41.959 18.3783 38.2339 19.8148 34.5546 21.3542C32.63 20.1794 30.6973 19.0198 28.7743 17.8433C32.086 17.1731 35.4352 16.7275 38.7862 16.3325Z" fill="#333333"/>
<path d="M2.20235 15.3265C8.53328 15.3349 14.8642 15.3164 21.1935 15.3349C22.5773 16.054 23.9105 16.8744 25.26 17.6576C30.4881 20.7601 35.6869 23.9149 40.8611 27.1119C42.1044 27.8816 43.3493 28.6496 44.5796 29.443C44.8491 29.6253 45.1351 29.7873 45.385 29.9983C39.7942 27.571 34.254 25.0154 28.5864 22.7873C23.7537 20.8765 18.8196 19.2392 13.8055 17.9243C11.0362 17.19 8.24573 16.552 5.44215 15.9764C4.36548 15.7468 3.27738 15.5696 2.20398 15.3265H2.20235Z" fill="#333333"/>
<path d="M9.14759 24.8905C11.7764 23.1097 14.6812 21.8049 17.6351 20.7196C19.3963 21.2108 21.1265 21.8167 22.8616 22.3974C20.5547 23.3427 18.3377 24.5445 16.3395 26.0721C15.0635 27.0646 13.8333 28.1534 12.8612 29.4717C9.99552 29.4717 7.12986 29.475 4.26582 29.4717C5.62677 27.6723 7.30304 26.143 9.14595 24.8922L9.14759 24.8905Z" fill="#333333"/>
<path d="M17.8965 27.468C19.8767 25.6079 22.182 24.1411 24.6212 23.0186C25.9985 23.5165 27.366 24.0448 28.7269 24.5867C27.549 25.4526 26.3759 26.3472 25.3956 27.4545C24.832 28.0791 24.332 28.7627 23.8713 29.4717C21.2785 29.475 18.6873 29.4717 16.0945 29.4734C16.6173 28.7357 17.2479 28.0875 17.8949 27.468H17.8965Z" fill="#333333"/>
</svg>
