<svg width="82" height="49" viewBox="0 0 82 49" fill="none" xmlns="http://www.w3.org/2000/svg">
<path d="M31.0984 35.2351H29.4977V42.0991L23.6463 35.2351H22.353V44.9028H23.9537V38.0623L29.8018 44.9028H31.0984V35.2351Z" fill="#333333"/>
<path d="M60.7331 35.2351L66.5845 42.0991V35.2351H68.1852V44.9028H66.8886L61.0405 38.0623V44.9028H59.4398V35.2351H60.7331Z" fill="#333333"/>
<path fill-rule="evenodd" clip-rule="evenodd" d="M55.7772 44.4918L51.3093 35.2351H50.006L45.5381 44.4918V44.9028H47.1388V44.856L47.9107 43.2587H53.4046L54.1765 44.856V44.9028H55.7772V44.4918ZM50.6577 37.5677L52.6327 41.658H48.6827L50.6577 37.5677Z" fill="#333333"/>
<path fill-rule="evenodd" clip-rule="evenodd" d="M82 44.9028V44.4918L77.5321 35.2351H76.2288L71.7609 44.4918V44.9028H73.3616V44.856L74.1335 43.2587H79.6273L80.3993 44.9028H82ZM76.8771 37.5677L78.8521 41.658H74.9021L76.8771 37.5677Z" fill="#333333"/>
<path d="M18.2861 44.9028H11.5123V35.2385H18.2861V36.8392H13.1164V39.3522H17.0196V40.9529H13.1164V43.3389H18.2861V44.9028Z" fill="#333333"/>
<path d="M1.70095 38.2494C1.80789 38.8977 2.40606 39.0715 4.03016 39.2352L4.0335 39.2386C5.49719 39.3856 7.50558 39.5894 7.78295 41.6346C7.87986 42.3497 7.67267 43.0214 7.18477 43.5795C6.46964 44.3949 5.16635 44.9028 3.78287 44.9028C1.5205 44.9028 0 43.8569 0 42.3029H1.6007C1.6007 42.8844 2.51968 43.3055 3.78621 43.3055C4.56914 43.3055 6.34845 42.9704 6.2023 41.8451C6.10873 41.1634 5.54063 40.9896 3.87309 40.8225L3.87135 40.8224C2.43121 40.6753 0.461029 40.4742 0.130328 38.5134C-0.22365 36.3988 1.87496 35.2167 3.78621 35.2184C5.7779 35.2184 7.16807 36.241 7.16807 37.708H5.57071C5.57071 37.1232 4.67177 36.8158 3.78287 36.8158C2.9919 36.8158 1.51662 37.1802 1.70095 38.2494Z" fill="#333333"/>
<path d="M36.7292 38.2494C36.8395 38.901 37.4076 39.0681 39.0584 39.2352L39.0618 39.2386C40.5255 39.3856 42.5339 39.5894 42.8112 41.6346C42.9081 42.3497 42.701 43.0214 42.2131 43.5795C41.4979 44.3949 40.1946 44.9028 38.8111 44.9028C36.5488 44.9028 35.0283 43.8569 35.0283 42.3029H36.6256C36.6256 42.8844 37.5446 43.3055 38.8111 43.3055C39.5937 43.3055 41.3734 42.9703 41.2272 41.8451C41.1337 41.1634 40.5656 40.9896 38.898 40.8225L38.8963 40.8224C37.4561 40.6753 35.486 40.4742 35.1553 38.5134C35.0283 37.7548 35.2188 37.0497 35.71 36.4682C36.3717 35.6863 37.5313 35.2184 38.8111 35.2184C40.8028 35.2184 42.193 36.241 42.193 37.708H40.5956C40.5956 37.1232 39.7001 36.8158 38.8111 36.8158C38.0201 36.8158 36.5448 37.1799 36.7292 38.2494Z" fill="#333333"/>
<path fill-rule="evenodd" clip-rule="evenodd" d="M30.7974 14.8745C30.7974 9.25045 35.3726 4.67188 41 4.67188C46.6241 4.67188 51.2026 9.25045 51.2026 14.8745C51.2026 20.4986 46.6241 25.0771 41 25.0771C35.376 25.0771 30.7974 20.4986 30.7974 14.8745ZM41 22.0483C41 22.0483 42.8657 21.5944 44.5566 20.6128L44.5499 20.6028C46.8694 19.2581 48.1133 17.4663 48.1469 15.4292C48.1655 14.3857 47.8245 13.3676 47.0779 12.6356C45.9759 12.6356 44.8663 12.9225 43.9314 13.5164C44.2306 13.7584 44.5028 14.0274 44.7214 14.3232C45.4744 13.94 46.1736 13.8122 46.5635 13.7685C46.735 14.0341 47.0039 14.582 46.9905 15.4157C46.9468 18.0983 44.2574 19.6514 42.4556 20.391C43.9078 19.5169 44.8155 17.9908 44.4491 16.125C44.1499 14.5955 42.5027 13.624 41.2656 12.9752C40.6941 12.676 39.0402 11.7213 38.9864 10.706C38.9225 9.49921 40.5226 8.80335 40.9966 8.68905C41.8875 8.9479 42.9565 9.54628 43.091 10.2388C43.2355 10.9817 42.7481 11.6641 42.2203 11.6641C43.1582 11.97 44.2843 11.2069 44.2339 10.2421C44.1398 8.44029 40.9966 7.70409 40.9966 7.70409C40.9966 7.70409 37.5207 8.36297 37.6484 10.7699C37.7256 12.236 39.1548 13.0759 40.282 13.7384C41.3262 14.352 42.7377 15.0444 42.9834 16.3435C43.3195 18.1118 42.4153 18.9858 41.7866 19.3489C40.6437 20.0077 38.7813 20.1725 37.3223 19.2043C36.0886 18.3336 35.0263 17.0999 34.9994 15.4225C34.986 14.5854 35.2516 14.0408 35.4264 13.7752C35.934 13.829 36.9627 14.024 37.951 14.7468C39.5847 15.9435 40.2235 17.7756 40.2268 17.7924C40.2253 17.7843 40.2252 17.759 40.2251 17.7187C40.2235 17.3106 40.2159 15.361 38.6771 13.9904C37.6559 13.0783 36.269 12.6457 34.9154 12.6457C34.1693 13.3772 33.8299 14.3973 33.8464 15.4393C33.88 17.4764 35.1238 19.2648 37.4434 20.6128C39.1343 21.5944 41 22.0483 41 22.0483Z" fill="#333333"/>
</svg>
