<svg width="76" height="16" viewBox="0 0 76 16" fill="none" xmlns="http://www.w3.org/2000/svg">
<path d="M16.5818 6.16229L10.3821 6.13486L9.71418 0L6.36558 6.10286L0 6.06629L4.1823 9.89257L0.88897 16L7.07951 12.1143L11.423 15.9543L10.8058 9.78286L16.5818 6.16229ZM4.22376 12.544L5.81745 9.52686L3.30255 7.34171L12.312 7.39657L4.22376 12.544Z" fill="black"/>
<path d="M72.3244 15.0857C70.8965 15.0857 70.0444 14.6926 69.5055 13.856L66.2352 8.99657L64.121 15.0857H61.2606L64.3328 5.94286H64.9777C66.1661 5.94286 67.055 6.112 67.7552 7.12229L71.0715 12.096L73.1304 5.94286H76L72.9278 15.0857H72.3244ZM15.2 15.0857L15.831 13.1703H22.4776C22.8553 13.1931 23.233 13.1109 23.5738 12.9417C23.7304 12.8549 23.841 12.7131 23.8962 12.5486C23.9023 12.5084 23.9001 12.4675 23.8898 12.4282C23.8795 12.389 23.8613 12.3521 23.8364 12.32C23.6914 12.1632 23.499 12.0573 23.2882 12.0183L18.9585 10.7931C18.1248 10.5509 17.503 10.1166 17.2175 9.55886C17.1183 9.36987 17.0605 9.16223 17.0478 8.94953C17.0351 8.73682 17.0678 8.52386 17.1438 8.32457C17.4072 7.65752 17.8847 7.09519 18.5025 6.72457C19.2733 6.20446 20.1869 5.93306 21.1188 5.94743H27.6364L27.0099 7.86286H21.0221C20.8378 7.86286 20.2943 7.86286 20.1147 8.08229C19.9903 8.21943 19.9396 8.40229 19.9765 8.58514C20.0548 8.75429 20.2068 8.88686 20.391 8.94171L20.6121 9.024L24.9326 10.2491C25.7617 10.4914 26.3651 10.912 26.6368 11.4377C26.8395 11.8309 26.8672 12.2834 26.7152 12.6994C26.6208 13.057 26.4485 13.3897 26.2106 13.674C25.9726 13.9583 25.6748 14.1874 25.3379 14.3451C24.3843 14.8348 23.3256 15.0888 22.2519 15.0857H15.2ZM28.6958 5.94286L28.097 7.83543H31.9016L29.5617 15.0857H32.3345L34.6744 7.83543H38.0829L38.6909 5.94286H28.6958ZM49.1697 12.6903L58.7227 9.056C59.8281 8.63543 59.6301 7.84 58.9622 7.84H53.2599L52.592 9.824L49.7915 10.8846L51.4359 5.952L59.6623 5.94286C60.2382 5.91187 60.8035 6.10544 61.2376 6.48229C61.5784 6.83886 61.7535 7.30514 61.7166 7.78514C61.6798 8.94172 60.7631 10.1897 59.4827 10.8297C59.3537 10.8937 59.1602 10.9806 58.953 11.0629L60.9566 15.008H58.0824L56.5348 11.9589L48.3636 15.0857L49.1697 12.6903ZM50.0495 7.84457L50.6667 5.94286H40.5702C40.5702 5.94286 38.3869 12.6949 38.3869 12.7223C37.8618 14.2766 38.7324 15.0857 39.976 15.0857H47.7142L48.3314 13.184H41.929C41.7217 13.184 41.4407 13.1474 41.321 12.9874C41.2012 12.8229 41.2473 12.5623 41.321 12.3703L41.6664 11.3737H47.3779L47.9537 9.63657H42.1961L42.8087 7.84L50.0495 7.84457Z" fill="black"/>
</svg>
