<svg width="87" height="32" viewBox="0 0 87 32" fill="none" xmlns="http://www.w3.org/2000/svg">
<path d="M61.9749 9.10347C62.0205 8.93316 62.0524 8.91376 62.2228 8.90729C62.2968 8.9037 62.3751 8.90729 62.4454 8.88717C62.7985 8.78944 63.1509 8.68093 63.5047 8.5796C63.6047 8.55158 63.6635 8.49337 63.6461 8.38558C63.6287 8.2706 63.6134 8.15203 63.583 8.03633C63.5424 7.88542 63.5105 7.87105 63.3582 7.91848C63.1661 7.981 62.974 8.05573 62.7796 8.10819C62.5723 8.15706 62.3613 8.21095 62.1402 8.19658C62.2163 7.7726 62.3098 7.67415 62.6963 7.5951C62.7325 7.5872 62.7709 7.57714 62.8072 7.5757C63.0733 7.55773 63.2516 7.39748 63.3923 7.19771C63.4633 7.09639 63.5047 6.9735 63.5634 6.86212C63.5888 6.81182 63.6214 6.7493 63.6649 6.72917C64.0347 6.56246 64.382 6.34615 64.7851 6.26423C64.9808 6.22543 65.1237 6.10398 65.2237 5.94014C65.3143 5.79282 65.4057 5.6491 65.4898 5.49604C65.526 5.4328 65.5376 5.35375 65.5608 5.28836C65.2853 5.1202 65.0765 5.1935 64.8887 5.38393C64.867 5.40621 64.8423 5.42561 64.8249 5.44573C64.6183 5.67784 64.3754 5.86468 64.0876 5.98972C63.8889 6.07452 63.6975 6.17944 63.4633 6.13848C62.6332 5.99475 61.7987 6.02853 60.9635 6.07093C60.896 6.07452 60.8279 6.08458 60.7604 6.07811C60.5089 6.04649 60.2587 5.99403 60.0035 6.09751L59.9375 5.99906C59.8375 5.85175 59.7875 5.83235 59.6185 5.89127C59.4685 5.94014 59.401 5.9272 59.3133 5.80288C59.2292 5.68144 59.1654 5.54418 59.0784 5.42274C58.9957 5.30991 58.9066 5.19422 58.8 5.1087C58.7195 5.03972 58.6064 4.95061 58.4955 5.03325C58.3867 5.11517 58.3577 5.24524 58.3802 5.37962C58.394 5.44573 58.415 5.51472 58.4498 5.56646C58.5179 5.66563 58.5875 5.76336 58.6731 5.84816C58.8899 6.05296 59.1139 6.25058 59.3379 6.45179C59.4286 6.53443 59.5141 6.61132 59.4539 6.75864C59.4365 6.80175 59.4627 6.87721 59.4938 6.92248C59.591 7.06189 59.7041 7.19484 59.8085 7.3285C59.8846 7.42982 59.9752 7.5254 59.9535 7.66912C59.9201 7.87105 59.8882 8.07514 59.852 8.29288C59.7519 8.29288 59.6577 8.30725 59.5714 8.28856C59.3256 8.22892 59.0827 8.15418 58.8399 8.0816C58.6397 8.02411 58.4483 7.93069 58.2308 7.99034C58.1714 8.21095 58.1801 8.39636 58.3925 8.53002C58.4288 8.55158 58.4614 8.58894 58.4897 8.622C58.6129 8.77291 58.7775 8.83399 58.9682 8.82824C59.132 8.82537 59.2988 8.81531 59.4641 8.81531C59.6084 8.81171 59.7519 8.81171 59.894 8.82537C60.0891 8.84836 60.1434 8.92166 60.1166 9.1085C60.1036 9.19473 60.0963 9.28672 60.0767 9.37223C60.0325 9.58494 59.9694 9.60434 59.8085 9.58781C59.5475 9.56194 59.2828 9.55188 59.0204 9.55907C58.871 9.56195 58.7195 9.595 58.5781 9.63381C58.4222 9.68195 58.3592 9.78759 58.3671 9.9385C58.3758 10.093 58.4251 10.1562 58.6042 10.1871C58.726 10.2073 58.8616 10.2109 58.982 10.1843C59.3981 10.0908 59.8143 10.0865 60.2363 10.1498C60.4262 10.1785 60.4574 10.2267 60.3595 10.3977C60.2674 10.5572 60.2196 10.7247 60.1928 10.905C60.1855 10.9539 60.1768 11.0092 60.1492 11.0516C60.0891 11.1508 60.0956 11.2492 60.1137 11.3534C60.1369 11.49 60.1804 11.6265 60.1311 11.7839C60.0274 11.794 59.9216 11.8249 59.8208 11.8119C59.5982 11.7918 59.4032 11.8637 59.2234 11.9736C59.04 12.0886 58.8602 12.2108 58.6927 12.3487C58.5042 12.5061 58.3838 12.7188 58.328 12.9516C58.3019 13.063 58.3229 13.1902 58.3577 13.3016C58.4041 13.4453 58.5527 13.4856 58.6832 13.3965C58.7492 13.3512 58.8101 13.2858 58.85 13.2197C58.9109 13.1184 58.9486 13.0019 59.003 12.8977C59.0443 12.8173 59.0842 12.7317 59.148 12.6764C59.4046 12.4572 59.7208 12.4637 60.0354 12.4278C60.0441 12.4896 60.0456 12.5219 60.0528 12.5485C60.092 12.7519 60.134 12.7849 60.3443 12.8216C60.5625 12.8647 60.7807 12.8568 60.9939 12.8058C61.2042 12.7555 61.4021 12.6534 61.5043 12.4651C61.5689 12.343 61.6421 12.3293 61.7487 12.3322C61.9082 12.3322 62.0401 12.4026 62.1503 12.509C62.2148 12.5715 62.2707 12.6455 62.3352 12.7073C62.4331 12.8058 62.5817 12.8438 62.6615 12.7979C62.7318 12.7583 62.7782 12.5808 62.7485 12.4673C62.7383 12.4306 62.7224 12.3947 62.7006 12.3667C62.4411 12.0412 62.1423 11.7839 61.6863 11.7918C61.6087 11.7918 61.5275 11.7825 61.4507 11.7774C61.4383 11.5532 61.4572 11.4878 61.6102 11.1637C61.7653 10.8296 61.9002 10.4918 61.8567 10.1117C61.8567 10.0995 61.8726 10.088 61.8857 10.0664C62.0742 10.0319 62.2663 10.047 62.4563 10.1074C62.5186 10.1289 62.5853 10.1512 62.6506 10.1613C62.7862 10.1778 62.8195 10.1498 62.8536 10.014C62.8753 9.927 62.8957 9.84005 62.9109 9.75166C62.9334 9.61009 62.892 9.55548 62.7514 9.54254C62.6615 9.53248 62.5701 9.53895 62.4795 9.53248C62.2874 9.51955 62.0967 9.49943 61.885 9.48002C61.9169 9.33271 61.9437 9.21845 61.9756 9.10347H61.9749ZM70.5729 10.7297C70.4939 10.2561 70.2953 9.83358 69.99 9.46206C69.4615 8.82177 68.7908 8.40282 67.9832 8.21455C67.3865 8.07514 66.7985 8.09023 66.2677 8.45169C66.0792 8.58248 65.9023 8.73698 65.7363 8.89364C65.2208 9.3787 64.8394 9.95215 64.5908 10.6133C64.4392 11.0193 64.3254 11.4354 64.2529 11.8637C64.1536 12.4637 64.1166 13.0637 64.1275 13.6688C64.1391 14.5132 64.2261 15.3518 64.3501 16.1868C64.4624 16.9464 64.5712 17.7074 64.6792 18.4691C64.7314 18.8529 64.793 19.2395 64.8228 19.6247C64.8735 20.3361 64.801 21.0403 64.6596 21.7374C64.5357 22.3396 64.4856 22.9504 64.5451 23.5648C64.6161 24.328 64.7075 25.0912 64.7916 25.8572C64.8322 26.2223 64.8423 26.5844 64.7872 26.9481C64.7662 27.1119 64.7553 27.2786 64.7423 27.4389C64.7314 27.5273 64.7553 27.6063 64.8474 27.6415C65.2571 27.7953 65.6689 27.8988 66.0829 27.6552C66.2677 27.5488 66.4128 27.4015 66.5469 27.2391C66.9079 26.8036 67.0689 26.2891 67.1922 25.7537C67.3125 25.2234 67.4242 24.688 67.5851 24.1706C67.7105 23.7711 67.8969 23.3945 68.068 23.0151C68.3631 22.3683 68.4936 21.695 68.4334 20.9879C68.3957 20.5258 68.4174 20.0659 68.511 19.6089C68.5588 19.3753 68.6045 19.1375 68.6241 18.9018C68.6806 18.1875 68.7096 17.471 68.7792 16.7603C68.8372 16.1538 68.9808 15.571 69.2926 15.0342C69.4064 14.8394 69.5485 14.7065 69.7769 14.6821C69.99 14.6576 70.135 14.5398 70.23 14.3558C70.2771 14.271 70.3286 14.1841 70.3576 14.0942C70.449 13.7946 70.5534 13.4978 70.6143 13.1902C70.6839 12.8273 70.7158 12.4536 70.7636 12.0886C70.6984 11.6287 70.6476 11.1767 70.5729 10.7297ZM5.99853 27.413C6.02753 27.367 6.0587 27.3239 6.07828 27.2801C6.29579 26.7871 6.52127 26.2992 6.72355 25.8033C6.85841 25.4706 6.97369 25.13 7.06431 24.7843C7.19989 24.2576 7.31735 23.7251 7.42248 23.1912C7.52906 22.6658 7.61533 22.1341 7.69219 21.603C7.76324 21.1445 7.80674 20.6868 7.86692 20.2247C7.9242 19.8036 8.00685 19.3861 8.17578 18.993C8.41649 18.4382 8.66155 17.8864 8.93488 17.346C9.30174 16.6252 9.63381 15.8922 9.78679 15.0931C9.94049 14.2825 10.1805 13.4834 10.2581 12.6563C10.2776 12.4457 10.3668 12.2769 10.5452 12.149C10.8352 11.9391 11.1578 11.7875 11.5094 11.7365C12.0387 11.6574 12.5723 11.615 13.1038 11.5496C13.3191 11.5238 13.5359 11.4878 13.7483 11.4418C14.2508 11.3283 14.7097 11.1012 15.1491 10.8411C15.3601 10.7146 15.5602 10.5658 15.6849 10.3409C15.8009 10.1325 15.79 9.93059 15.6051 9.77465C15.4108 9.60794 15.1991 9.44409 14.9693 9.31977C14.5546 9.097 14.1253 8.89723 13.6954 8.70464C13.3169 8.5372 12.9319 8.38629 12.5064 8.3748C12.2519 8.37192 11.9945 8.34749 11.74 8.3439C10.986 8.33384 10.2327 8.33096 9.47938 8.33384C8.26061 8.34102 7.04039 8.3518 5.8209 8.36977C5.39313 8.3748 4.96319 8.40282 4.5376 8.42582C4.18669 8.44378 3.84448 8.48834 3.49936 8.48978C3.04042 8.49768 2.58148 8.47037 2.12181 8.47325C1.69912 8.47468 1.27716 8.51708 0.879845 8.67446C0.522407 8.81531 0.238922 9.03376 0.106243 9.40457C-0.0460128 9.83358 -0.0590632 10.2561 0.230222 10.6427C0.383928 10.8475 0.586935 10.9999 0.814593 11.1242C1.51352 11.4972 2.27407 11.6775 3.04767 11.7983C3.60594 11.8845 4.16711 11.9564 4.72538 12.044C4.79933 12.0541 4.89431 12.0907 4.93709 12.1454C5.08934 12.3394 5.20897 12.5535 5.27785 12.7957C5.39168 13.1938 5.45186 13.602 5.43446 14.0123C5.40546 14.7 5.34383 15.3827 5.3112 16.069C5.2677 17.0988 5.2358 18.1285 5.19955 19.1569C5.1807 19.7037 5.17417 20.2477 5.1546 20.7924C5.11327 21.8624 5.08209 22.9267 5.17417 23.9938C5.25393 24.9007 5.38588 25.8019 5.66719 26.6728C5.74767 26.9243 5.84845 27.1708 5.94125 27.4202C5.95938 27.4159 5.98113 27.4159 5.99925 27.413H5.99853ZM76.4101 21.2114C76.4101 21.6684 76.4043 22.124 76.4101 22.5789C76.4174 23.1703 76.4855 23.7545 76.5863 24.3359C76.653 24.7254 76.7299 25.1142 76.7821 25.5051C76.8509 26.0404 76.8887 26.5744 76.8821 27.1148C76.8821 27.1866 76.8836 27.2635 76.8937 27.3375C76.93 27.6207 77.0685 27.7134 77.3461 27.6358C77.779 27.5107 78.1096 27.2693 78.3112 26.8597C78.4562 26.5593 78.5519 26.2467 78.628 25.9291C78.7367 25.4706 78.8477 25.0157 78.9774 24.5637C79.1188 24.0693 79.3023 23.5864 79.4342 23.0905C79.6459 22.2979 79.8308 21.5003 80.0251 20.7062C80.2172 19.9222 80.4144 19.1403 80.5986 18.3585C80.7639 17.6686 80.972 16.9931 81.2352 16.3341C81.3998 15.9202 81.6049 15.5185 81.7898 15.1125C81.9283 14.8179 82.0392 14.5204 82.0015 14.1891C81.9725 13.9469 81.9377 13.7127 81.8913 13.4784C81.8072 13.063 81.9239 12.7188 82.2379 12.4278C82.4307 12.251 82.6657 12.1346 82.9035 12.0642C83.3697 11.9226 83.8489 11.827 84.3274 11.73C84.9901 11.5956 85.6687 11.5338 86.293 11.2521C86.5141 11.1508 86.7091 11.0193 86.8512 10.8195C87.0383 10.5608 87.0948 9.93562 86.7461 9.66686C86.5757 9.53248 86.3974 9.40098 86.2045 9.31187C85.6839 9.06898 85.1307 8.93172 84.5717 8.80884C83.7887 8.63565 82.9977 8.55732 82.2031 8.49265C81.3476 8.42582 80.492 8.36689 79.6394 8.26844C78.8513 8.17502 78.0646 8.11466 77.2736 8.14772C76.7647 8.16712 76.2753 8.26269 75.8265 8.52427C75.6728 8.61553 75.5111 8.69386 75.3494 8.77291C75.0108 8.93172 74.6628 9.04814 74.28 8.95975C74.0473 8.9037 73.8087 8.86489 73.5789 8.79519C73.1664 8.67446 72.7654 8.68739 72.3609 8.82537C71.7859 9.0237 71.4089 9.38229 71.34 10.0075C71.3219 10.1699 71.3263 10.3301 71.4328 10.4731C71.6917 10.8231 71.9447 11.1767 72.1919 11.5295C72.2615 11.6315 72.3493 11.6905 72.4624 11.7156C72.7205 11.7695 72.9786 11.8184 73.2381 11.8665C73.6514 11.9456 74.069 12.0117 74.4801 12.1001C74.8535 12.1791 75.2218 12.284 75.5952 12.3717C75.6612 12.3861 75.7533 12.3976 75.8047 12.3667C75.9041 12.3056 75.9787 12.3358 76.0563 12.3832C76.2811 12.5219 76.4464 12.7073 76.5015 12.971C76.5646 13.2729 76.6262 13.5704 76.6827 13.8722C76.777 14.3414 76.8096 14.8186 76.777 15.2958C76.7407 15.8462 76.7059 16.3981 76.6233 16.9428C76.5 17.7649 76.4971 18.5956 76.4341 19.422C76.3956 20.0149 76.4029 20.6149 76.3913 21.2114H76.4101ZM27.1178 9.16599C26.2985 9.08838 25.4771 9.13293 24.6578 9.19402C24.0836 9.23426 23.5166 9.19545 22.9496 9.10203C22.4929 9.02514 22.1086 8.78944 21.7316 8.5408C21.2719 8.23898 20.7724 8.03992 20.2257 7.98387C19.3252 7.89548 18.4682 8.04855 17.6635 8.46031C17.1378 8.7262 16.7485 9.1085 16.5883 9.68842C16.5498 9.82424 16.5042 9.96006 16.4824 10.0995C16.4229 10.453 16.3497 10.803 16.3258 11.1601C16.2874 11.73 16.4911 12.2452 16.7652 12.7346C17.016 13.1873 17.1994 13.6688 17.2792 14.1826C17.3046 14.3558 17.2966 14.5398 17.277 14.713C17.219 15.1456 17.0073 15.5185 16.7717 15.8757C16.5578 16.2012 16.3352 16.5203 16.1358 16.8516C15.9901 17.0959 15.8792 17.3531 15.8857 17.6542C15.898 18.158 15.8777 18.6675 15.8857 19.1748C15.9096 20.6372 15.9336 22.1039 15.964 23.5648C15.9749 24.1771 15.9966 24.7893 16.0198 25.4016C16.0314 25.7652 16.0416 26.1324 16.0793 26.4953C16.1155 26.8259 16.2286 27.1277 16.4846 27.367C16.8413 27.6976 17.285 27.7436 17.7302 27.717C18.2848 27.6825 18.8337 27.5661 19.3782 27.4518C19.998 27.3239 20.6172 27.2096 21.2415 27.1076C21.8099 27.0163 22.3631 26.9035 22.846 26.5593C23.2353 26.279 23.6406 26.021 24.0372 25.7523C24.0865 25.7199 24.1408 25.6804 24.1648 25.628C24.2837 25.3657 24.3047 25.0962 24.2054 24.8231C24.1126 24.5651 23.8972 24.4229 23.6652 24.3115C23.3071 24.1462 22.9235 24.06 22.5349 24.019C21.8911 23.9493 21.2451 23.8896 20.6013 23.8401C20.18 23.8084 19.8081 23.6733 19.4746 23.4204C19.2382 23.2443 19.1519 23.0151 19.2476 22.7305C19.4072 22.2713 19.5783 21.8193 19.732 21.3608C19.9038 20.8506 20.2554 20.5028 20.7296 20.2635C21.575 19.8331 22.4392 19.4565 23.3564 19.2029C23.5355 19.1554 23.7087 19.1274 23.89 19.1238C23.9806 19.1238 24.0712 19.1238 24.1611 19.1324C24.3279 19.1504 24.4664 19.0979 24.602 18.9995C25.1022 18.638 25.3669 18.1486 25.4183 17.5457C25.4401 17.3129 25.3756 17.0873 25.2675 16.876C25.0718 16.4994 24.7441 16.2795 24.3424 16.1832C23.9944 16.1013 23.6326 16.069 23.2752 16.0165C22.9337 15.9641 22.5864 15.9281 22.2493 15.8627C21.7686 15.7744 21.3952 15.4668 20.9971 15.2138C20.9544 15.1851 20.9268 15.096 20.9268 15.0342C20.9239 14.7841 20.9196 14.5268 20.9486 14.2775C20.9855 13.9397 21.1661 13.6818 21.4561 13.4985C21.7773 13.2987 22.1318 13.2067 22.4972 13.1579C23.0142 13.086 23.5282 13.0213 24.0437 12.9545C24.5461 12.8877 24.979 12.6893 25.3321 12.325C25.4263 12.2258 25.5249 12.1346 25.6264 12.0455C25.8606 11.8443 26.1238 11.7293 26.4457 11.725C26.685 11.725 26.9249 11.6854 27.1606 11.6409C27.3998 11.5992 27.5724 11.4612 27.6282 11.2126C27.708 10.8554 27.8008 10.5019 27.8494 10.1419C27.8842 9.87598 27.8566 9.60794 27.8566 9.30109C27.6057 9.25294 27.3636 9.18899 27.1171 9.16599H27.1178ZM49.7488 15.6924C49.714 15.6191 49.6741 15.5487 49.6458 15.4761C49.4247 14.8969 49.2079 14.317 48.9882 13.7407C48.7685 13.1672 48.5735 12.5909 48.4191 11.998C48.2741 11.4497 48.2429 10.9072 48.3799 10.3646C48.4597 10.0564 48.364 9.80771 48.1986 9.56482C47.9376 9.17533 47.5643 8.91376 47.1735 8.67446C46.8624 8.48474 46.5267 8.35683 46.1874 8.23251C45.6596 8.03992 45.118 7.94291 44.5518 7.96088C44.2473 7.97022 43.9551 8.01621 43.6774 8.15059C43.2576 8.35036 42.9603 8.64356 42.8378 9.1085C42.7189 9.56195 42.7602 10.0068 42.8791 10.4365C43.051 11.0746 43.2663 11.7056 43.4664 12.3358C43.6129 12.7943 43.7252 13.2527 43.71 13.7407C43.6752 14.8675 43.6491 15.9935 43.639 17.1203C43.6295 18.7415 43.6295 20.3591 43.697 21.9796C43.7499 23.2407 43.7985 24.5019 44.0457 25.7408C44.1015 26.0261 44.2009 26.3042 44.3219 26.5643C44.4822 26.9078 44.7497 26.9114 44.981 26.6613C45.1332 26.5004 45.2659 26.3106 45.3624 26.1109C45.6306 25.559 45.8046 24.9697 45.9112 24.369C46.0199 23.751 46.1019 23.1279 46.1635 22.5078C46.2346 21.787 46.2723 21.0633 46.3187 20.3411C46.3353 20.0724 46.3288 19.8036 46.3469 19.537C46.3854 18.9118 46.4318 18.2845 46.4774 17.6614C46.484 17.5651 46.5043 17.471 46.5173 17.3754C46.5746 17.4358 46.5949 17.5033 46.6065 17.5723C46.629 17.7326 46.6355 17.8979 46.6717 18.0588C46.8835 18.9707 47.2025 19.8482 47.544 20.7141C47.8093 21.3889 48.0536 22.0687 48.2878 22.7521C48.4038 23.087 48.5227 23.4175 48.7671 23.6841C48.9788 23.9184 49.2826 24.0032 49.5602 23.8674C49.669 23.8135 49.7792 23.7646 49.8742 23.6891C50.1134 23.5095 50.3433 23.3227 50.4484 23.0208C50.5412 22.7557 50.5847 22.484 50.5673 22.2081C50.5383 21.5678 50.6906 20.9692 50.9421 20.3828C51.214 19.7612 51.4729 19.1353 51.7129 18.4986C51.9782 17.7944 52.332 17.1253 52.6373 16.4376C52.7808 16.1085 52.9033 15.7744 53.0324 15.4402C53.0904 15.2929 53.1383 15.1384 53.1905 14.9832C53.2158 14.9997 53.234 15.0083 53.2369 15.0177C53.321 15.4273 53.4109 15.8333 53.4863 16.2422C53.5595 16.6324 53.6168 17.0219 53.6798 17.4149C53.7697 17.9783 53.8669 18.5475 53.9438 19.1145C54.0199 19.6843 54.0815 20.2542 54.1395 20.8269C54.2149 21.5642 54.2896 22.2979 54.3505 23.0345C54.4121 23.7696 54.46 24.5076 54.5129 25.2442C54.5455 25.7293 54.5637 26.2158 54.6101 26.6987C54.6333 26.9481 54.6855 27.1996 54.7638 27.4389C54.8268 27.6401 55.0081 27.6652 55.1415 27.4942C55.2626 27.3433 55.3779 27.183 55.4562 27.007C55.6338 26.6046 55.8013 26.2014 55.9499 25.7853C56.2254 25.0121 56.5016 24.2425 56.7445 23.4599C56.8533 23.1135 56.9164 22.7463 56.9381 22.3827C56.9845 21.6749 56.9845 20.9678 57.0063 20.2578C57.0164 19.8676 57.0237 19.481 57.0498 19.0929C57.0918 18.5511 57.1426 18.0092 57.1948 17.4674C57.2238 17.1778 57.2578 16.8875 57.3006 16.6015C57.4333 15.7118 57.4732 14.8186 57.4101 13.921C57.3876 13.6228 57.3079 13.3347 57.123 13.086C57.0534 12.9976 56.9968 12.8992 56.9446 12.8022C56.7938 12.5219 56.7728 12.2179 56.7888 11.9082C56.8105 11.5288 56.8547 11.1508 56.8671 10.7707C56.8779 10.3682 56.7474 10.0118 56.4821 9.69992C56.0485 9.1897 55.512 8.83543 54.8957 8.58607C54.1243 8.26988 53.384 8.3209 52.6786 8.77291C51.9318 9.25438 51.4801 9.95 51.1966 10.7707C51.0589 11.1767 51.0168 11.5992 50.982 12.0246C50.9327 12.6441 50.8211 13.2527 50.621 13.8384C50.5035 14.1841 50.3803 14.5297 50.2374 14.8639C50.1134 15.1513 49.9568 15.4222 49.814 15.7003C49.7915 15.6989 49.7698 15.696 49.7488 15.6924ZM36.8926 13.957C36.902 13.6588 36.9071 13.3605 36.802 13.0731C36.7425 12.9121 36.6367 12.8367 36.4648 12.8302C36.1973 12.8173 35.9573 12.9121 35.7311 13.0264C35.1924 13.3016 34.6305 13.505 34.0548 13.6832C33.7902 13.7665 33.5321 13.8729 33.2849 13.9958C32.9825 14.1467 32.7904 14.3961 32.7295 14.7395C32.6766 15.027 32.7295 15.3029 32.7861 15.5825C32.847 15.8663 32.9245 16.1473 33.0036 16.4276C33.1029 16.7811 33.3095 17.0348 33.6931 17.1203C34.2281 17.2461 34.7284 17.1562 35.1235 16.7862C35.5963 16.3392 36.0472 15.8627 36.459 15.3647C36.7904 14.9688 36.8795 14.4643 36.8926 13.957ZM37.0202 18.7286C37.1674 18.9312 37.3102 19.1375 37.4646 19.3372C37.949 19.9696 38.5087 20.5301 39.0503 21.1108C39.473 21.5635 39.8949 22.0234 40.2857 22.5034C40.8346 23.1768 41.2174 23.9464 41.4095 24.7944C41.5494 25.4282 41.635 26.0749 41.5792 26.7282C41.5444 27.1054 41.4537 27.4633 41.1615 27.7378C40.8788 28.0087 40.4024 28.1136 40.0958 27.8384C39.9051 27.6681 39.7079 27.5079 39.536 27.3225C39.0053 26.744 38.4782 26.1619 37.9664 25.5654C37.4081 24.9209 36.8571 24.2691 36.2386 23.6798C35.5774 23.0489 34.8509 22.5085 33.9932 22.1664C33.7902 22.0874 33.5872 22.0155 33.3827 21.9436C33.3327 21.9242 33.2798 21.9149 33.229 21.9048C32.8288 21.8279 32.5678 22.0105 32.5359 22.4301C32.5047 22.8642 32.5178 23.2961 32.5178 23.7287C32.5178 24.1052 32.4823 24.4717 32.38 24.8353C32.193 25.5008 31.7877 25.965 31.1395 26.2151C30.5667 26.4335 29.9846 26.486 29.3966 26.2833C28.8405 26.0893 28.5265 25.6668 28.5193 25.0833C28.5135 24.8619 28.5338 24.6377 28.5497 24.4135C28.5911 23.8559 28.6295 23.2961 28.6802 22.7391C28.7216 22.2893 28.6259 21.8653 28.4823 21.4464C28.383 21.1589 28.3387 20.8693 28.3286 20.5653C28.2996 19.7404 28.4134 18.9312 28.5628 18.1221C28.6723 17.5292 28.7846 16.9363 28.8927 16.3406C29.0551 15.4424 29.1356 14.5347 29.0456 13.6228C29.0043 13.2147 28.9231 12.8108 28.8542 12.4062C28.7498 11.7882 28.6128 11.1731 28.6346 10.5414C28.6462 10.0815 28.739 9.6374 29.0471 9.26947C29.216 9.06395 29.4125 8.89364 29.6489 8.77075C30.1093 8.53002 30.6008 8.37695 31.1141 8.26988C31.6876 8.15059 32.2604 8.11753 32.8419 8.10963C33.6177 8.10172 34.3913 8.14412 35.1583 8.27347C36.0233 8.41935 36.8962 8.54367 37.7619 8.70464C38.2607 8.79519 38.7726 8.8728 39.2315 9.11641C39.3504 9.18108 39.4693 9.24791 39.5781 9.32624C39.7064 9.41966 39.8152 9.53751 39.8536 9.69633C39.9624 10.1462 40.0762 10.5939 40.1683 11.0473C40.2698 11.5367 40.3452 12.0318 40.4416 12.5219C40.4822 12.7382 40.4778 12.971 40.6461 13.1478C40.6743 13.1809 40.6722 13.2491 40.6678 13.3016C40.6475 13.5229 40.6461 13.7522 40.5917 13.9663C40.4706 14.4514 40.3169 14.9257 40.1915 15.4107C40.0704 15.8721 39.9029 16.3191 39.7006 16.7531C39.5136 17.1555 39.2453 17.5076 38.9248 17.8145C38.6348 18.0833 38.318 18.3233 38.0142 18.5777C37.9301 18.6495 37.838 18.6826 37.7249 18.6775C37.5002 18.6689 37.2754 18.674 37.0499 18.674C37.0391 18.6919 37.0296 18.712 37.0202 18.7278V18.7286Z" fill="#333333"/>
</svg>
