<svg width="17" height="16" viewBox="0 0 17 16" fill="none" xmlns="http://www.w3.org/2000/svg">
<circle cx="8.5" cy="8" r="8" fill="#FF0016"/>
<path d="M11.3566 3.85673C11.1042 3.68671 10.7617 3.75359 10.5917 4.00611L5.54121 11.5079C5.37122 11.7604 5.43811 12.1028 5.69059 12.2728C5.76505 12.3229 5.84734 12.3524 5.93073 12.3627C6.13005 12.3871 6.33561 12.3014 6.45548 12.1234L11.506 4.62162C11.676 4.36914 11.6091 4.02672 11.3566 3.85673Z" fill="white"/>
<path d="M7.88004 6.19734C7.88004 5.04487 6.94242 4.10725 5.78996 4.10725C4.63757 4.10725 3.69995 5.04487 3.69995 6.19734C3.69995 7.34976 4.63757 8.28738 5.78999 8.28738C6.94246 8.28738 7.88004 7.34976 7.88004 6.19734ZM5.78999 7.18521C5.2453 7.18521 4.80212 6.74203 4.80212 6.19734C4.80212 5.65261 5.2453 5.20942 5.78999 5.20942C6.33472 5.20942 6.77791 5.65257 6.77791 6.19734C6.77787 6.74203 6.33472 7.18521 5.78999 7.18521Z" fill="white"/>
<path d="M11.2845 7.84188C10.132 7.84188 9.19443 8.7795 9.19443 9.93193C9.19443 11.0844 10.132 12.022 11.2845 12.022C12.4369 12.022 13.3746 11.0844 13.3746 9.93193C13.3746 8.77946 12.437 7.84188 11.2845 7.84188ZM11.2845 10.9198C10.7398 10.9198 10.2966 10.4766 10.2966 9.93189C10.2966 9.3872 10.7398 8.94402 11.2845 8.94402C11.8292 8.94402 12.2724 9.3872 12.2724 9.93189C12.2724 10.4766 11.8292 10.9198 11.2845 10.9198Z" fill="white"/>
</svg>
