<svg width="16" height="16" viewBox="0 0 16 16" fill="none" xmlns="http://www.w3.org/2000/svg">
<path d="M0 2C0 0.895431 0.895431 0 2 0H14C15.1046 0 16 0.895431 16 2V14C16 15.1046 15.1046 16 14 16H2C0.895431 16 0 15.1046 0 14V2Z" fill="black"/>
<path d="M9.40625 4.35349C9.54347 4.11402 9.84833 4.0309 10.0879 4.16795C10.3272 4.3052 10.4104 4.6101 10.2734 4.84959C10.0473 5.24448 9.79418 5.49704 9.51074 5.69431C9.59899 5.86944 9.69577 6.03705 9.83301 6.19138C10.0454 6.43 10.3551 6.63181 10.9062 6.63181C11.5251 6.63175 12.0233 6.47752 12.3945 6.35154C12.5524 6.29795 12.7652 6.22018 12.9229 6.19627C12.9942 6.18548 13.1839 6.16147 13.3672 6.27049C13.6044 6.41176 13.6504 6.65152 13.6504 6.78904V11.3984C13.6504 11.6744 13.4263 11.8982 13.1504 11.8984H5.39844C5.04797 11.8984 4.68744 11.8984 4.35645 11.8701C4.0262 11.8418 3.68721 11.7823 3.38281 11.6435C3.06654 11.4993 2.7939 11.2717 2.6084 10.9297C2.42845 10.5977 2.34964 10.194 2.34961 9.72361C2.34961 9.04108 2.58982 8.54302 2.90332 8.19138C3.20604 7.852 3.56025 7.66857 3.75195 7.57322C4.10849 7.39588 4.72093 7.0788 5.48047 6.68748C5.96483 6.43793 6.50438 6.15875 7.03809 5.88279C7.59803 5.59327 8.15238 5.30629 8.63086 5.0576C8.9849 4.87355 9.19953 4.7144 9.40625 4.35349ZM3.40332 10.2236C3.42686 10.3185 3.45515 10.3937 3.4873 10.4531C3.55722 10.582 3.65504 10.6692 3.79785 10.7344C3.9524 10.8047 4.16192 10.85 4.44238 10.874C4.72253 10.898 5.03737 10.8984 5.39844 10.8984H12.6504V10.2236H3.40332ZM4.19727 8.46873C4.02848 8.55268 3.8198 8.66671 3.65039 8.85642C3.56631 8.95071 3.48763 9.06998 3.43164 9.22361H6.17578L5.4834 7.80857C4.93525 8.09126 4.48592 8.32515 4.19727 8.46873ZM6.37305 7.35154L7.28809 9.22361H8.12598L7.04199 7.00584C6.81538 7.12289 6.59079 7.23924 6.37305 7.35154ZM7.93066 6.54588L9.23926 9.22361H12.6504V7.31931C12.2501 7.45312 11.6513 7.63176 10.9062 7.63181C10.0514 7.63181 9.47561 7.2943 9.08594 6.85642C8.89389 6.64054 8.74795 6.39569 8.63574 6.18064C8.40922 6.29815 8.17206 6.42093 7.93066 6.54588Z" fill="white"/>
</svg>
