<svg width="17" height="16" viewBox="0 0 17 16" fill="none" xmlns="http://www.w3.org/2000/svg">
<path d="M0.5 2C0.5 0.895431 1.39543 0 2.5 0H14.5C15.6046 0 16.5 0.895431 16.5 2V14C16.5 15.1046 15.6046 16 14.5 16H2.5C1.39543 16 0.5 15.1046 0.5 14V2Z" fill="black"/>
<path fill-rule="evenodd" clip-rule="evenodd" d="M6.42111 3.00024H10.5789C10.8926 3.00024 11.1164 3.11281 11.304 3.36417C11.9673 4.25274 12.6213 5.14922 13.2945 6.03033C13.5549 6.3712 13.5549 6.7425 13.2945 7.08337C11.9153 8.88855 10.5756 10.7254 9.21665 12.5458C8.79543 13.1105 8.20455 13.1105 7.78333 12.5459L3.71847 7.10047C3.45202 6.74353 3.43033 6.39044 3.70549 6.03033C4.37868 5.14925 5.03263 4.25273 5.69593 3.36417C5.88357 3.11281 6.10736 3.00024 6.42111 3.00024ZM4.93379 7.05685L7.1081 9.9696L6.11413 7.05685H4.93379ZM6.20353 6.05685H4.93379L6.469 4.00024H7.56816L6.20353 6.05685ZM7.17075 7.05685L8.49999 10.9521L9.82922 7.05685H7.17075ZM9.59633 6.05685H7.40364L8.49999 4.40458L9.59633 6.05685ZM10.8858 7.05685L9.89187 9.9696L12.0662 7.05685H10.8858ZM12.0662 6.05685H10.7964L9.43181 4.00024H10.531L12.0662 6.05685Z" fill="white"/>
</svg>
